<?xml version="1.0" encoding="UTF-8" standalone="no"?>
<!-- Created with Inkscape (http://www.inkscape.org/) -->

<svg
   xmlns:dc="http://purl.org/dc/elements/1.1/"
   xmlns:cc="http://creativecommons.org/ns#"
   xmlns:rdf="http://www.w3.org/1999/02/22-rdf-syntax-ns#"
   xmlns:svg="http://www.w3.org/2000/svg"
   xmlns="http://www.w3.org/2000/svg"
   xmlns:sodipodi="http://sodipodi.sourceforge.net/DTD/sodipodi-0.dtd"
   xmlns:inkscape="http://www.inkscape.org/namespaces/inkscape"
   width="744.09448819"
   height="1052.3622047"
   id="svg2"
   version="1.1"
   inkscape:version="0.48.1 "
   sodipodi:docname="experiencia-positiva.svg"
   inkscape:export-filename="C:\Users\PauloS\Pictures\territorio-livre.png"
   inkscape:export-xdpi="59"
   inkscape:export-ydpi="59">
  <defs
     id="defs4" />
  <sodipodi:namedview
     id="base"
     pagecolor="#ffffff"
     bordercolor="#666666"
     borderopacity="1.0"
     inkscape:pageopacity="0.0"
     inkscape:pageshadow="2"
     inkscape:zoom="0.55790351"
     inkscape:cx="453.37973"
     inkscape:cy="678.07258"
     inkscape:document-units="px"
     inkscape:current-layer="layer1"
     showgrid="false"
     inkscape:window-width="1920"
     inkscape:window-height="1017"
     inkscape:window-x="-4"
     inkscape:window-y="-4"
     inkscape:window-maximized="1"
     showguides="true"
     inkscape:guide-bbox="true" />
  <metadata
     id="metadata7">
    <rdf:RDF>
      <cc:Work
         rdf:about="">
        <dc:format>image/svg+xml</dc:format>
        <dc:type
           rdf:resource="http://purl.org/dc/dcmitype/StillImage" />
        <dc:title />
      </cc:Work>
    </rdf:RDF>
  </metadata>
  <g
     inkscape:label="Layer 1"
     inkscape:groupmode="layer"
     id="layer1">
    <text
       xml:space="preserve"
       style="font-size:88.95645142px;font-style:normal;font-variant:normal;font-weight:bold;font-stretch:normal;text-indent:0;text-align:center;text-decoration:none;line-height:125%;letter-spacing:0px;word-spacing:0px;text-transform:none;direction:ltr;block-progression:tb;writing-mode:lr-tb;text-anchor:middle;baseline-shift:baseline;color:#000000;fill:#000000;fill-opacity:1;fill-rule:nonzero;stroke:none;marker:none;visibility:visible;display:inline;overflow:visible;enable-background:accumulate;font-family:Aharoni;-inkscape-font-specification:Aharoni Bold"
       x="370.03033"
       y="204.66724"
       id="text3860"
       sodipodi:linespacing="125%"><tspan
         sodipodi:role="line"
         id="tspan3862"
         x="370.03033"
         y="204.66724">EXPERIENCIA</tspan></text>
    <text
       sodipodi:linespacing="125%"
       id="text3864"
       y="727.82617"
       x="369.01031"
       style="font-size:121.85366821px;font-style:normal;font-variant:normal;font-weight:bold;font-stretch:normal;text-indent:0;text-align:center;text-decoration:none;line-height:125%;letter-spacing:0px;word-spacing:0px;text-transform:none;direction:ltr;block-progression:tb;writing-mode:lr-tb;text-anchor:middle;baseline-shift:baseline;color:#000000;fill:#000000;fill-opacity:1;fill-rule:nonzero;stroke:none;marker:none;visibility:visible;display:inline;overflow:visible;enable-background:accumulate;font-family:Aharoni;-inkscape-font-specification:Aharoni Bold"
       xml:space="preserve"><tspan
         y="727.82617"
         x="369.01031"
         id="tspan3866"
         sodipodi:role="line">POSITIVA</tspan></text>
    <path
       sodipodi:type="star"
       style="color:#000000;fill:#000000;fill-opacity:1;fill-rule:nonzero;stroke:none;stroke-width:39.29999924;marker:none;visibility:visible;display:inline;overflow:visible;enable-background:accumulate"
       id="path3908"
       sodipodi:sides="3"
       sodipodi:cx="56.435726"
       sodipodi:cy="173.57729"
       sodipodi:r1="18.427994"
       sodipodi:r2="0.87329668"
       sodipodi:arg1="1.5707963"
       sodipodi:arg2="2.6179939"
       inkscape:flatsided="true"
       inkscape:rounded="0"
       inkscape:randomized="0"
       d="m 56.435727,192.00528 -15.959112,-27.64199 31.918222,0 z"
       transform="matrix(-0.33977278,0,0,-0.16431205,427.96383,169.0765)" />
    <g
       id="g3035"
       transform="matrix(0.82767855,0,0,0.82767855,66.966094,45.047293)">
      <path
         style="color:#000000;fill:#000000;fill-opacity:1;fill-rule:nonzero;stroke:none;stroke-width:39.29999924;marker:none;visibility:visible;display:inline;overflow:visible;enable-background:accumulate"
         d="m 453.58078,291.56266 c -18.63227,0 -33.74585,15.11358 -33.74585,33.74585 0,15.7472 10.7876,28.94726 25.37688,32.66599 -19.60817,3.6944 -34.36292,20.86042 -34.36292,41.57489 l 0,68.34017 c 0,1.02001 0.0455,2.04526 0.11564,3.04677 -0.0676,0.61208 -0.11564,1.22051 -0.11564,1.8512 l 0,124.91751 c 0,9.22046 7.40178,16.62224 16.62224,16.62224 9.22046,0 16.66081,-7.40178 16.66081,-16.62224 l 0,-88.47199 c 2.8905,0.61996 5.90502,0.96417 8.98604,0.96417 3.09175,0 6.08667,-0.33926 8.98604,-0.96417 l 0,88.47199 c 0,9.22046 7.40178,16.62224 16.62224,16.62224 9.22046,0 16.66081,-7.40178 16.66081,-16.62224 l 0,-124.91751 c 0,-0.64369 -0.0453,-1.26552 -0.11564,-1.88977 0.0691,-0.99354 0.11564,-1.99656 0.11564,-3.0082 l 0,-68.34017 c 0,-20.52322 -14.48582,-37.55335 -33.82299,-41.45919 14.76891,-3.59321 25.72399,-16.90704 25.72399,-32.78169 0,-18.63227 -15.07503,-33.74585 -33.70729,-33.74585 z"
         id="path3842"
         inkscape:connector-curvature="0" />
      <path
         inkscape:connector-curvature="0"
         id="path3806"
         d="m 277.48469,291.56266 c -18.63225,0 -33.74585,15.11358 -33.74585,33.74585 0,15.7472 10.7876,28.94726 25.37688,32.66599 -19.60817,3.6944 -34.36292,20.86042 -34.36292,41.57489 l 0,68.34017 c 0,1.02001 0.0455,2.04526 0.11564,3.04677 -0.0676,0.61208 -0.11564,1.22051 -0.11564,1.8512 l 0,124.91751 c 0,9.22046 7.40178,16.62224 16.62224,16.62224 9.22047,0 16.66081,-7.40178 16.66081,-16.62224 l 0,-88.47199 c 2.89051,0.61996 5.90503,0.96417 8.98604,0.96417 3.09175,0 6.08668,-0.33926 8.98604,-0.96417 l 0,88.47199 c 0,9.22046 7.40178,16.62224 16.62224,16.62224 9.22047,0 16.66081,-7.40178 16.66081,-16.62224 l 0,-124.91751 c 0,-0.64369 -0.0453,-1.26552 -0.11564,-1.88977 0.0691,-0.99354 0.11564,-1.99656 0.11564,-3.0082 l 0,-68.34017 c 0,-20.52322 -14.48582,-37.55335 -33.82298,-41.45919 14.7689,-3.59321 25.72398,-16.90704 25.72398,-32.78169 0,-18.63227 -15.07502,-33.74585 -33.70729,-33.74585 z"
         style="color:#000000;fill:#000000;fill-opacity:1;fill-rule:nonzero;stroke:none;stroke-width:39.29999924;marker:none;visibility:visible;display:inline;overflow:visible;enable-background:accumulate" />
      <path
         inkscape:export-ydpi="59"
         inkscape:export-xdpi="59"
         inkscape:export-filename="C:\Users\PauloS\Pictures\tla-logo.png"
         inkscape:connector-curvature="0"
         id="path2985"
         d="m 539.96216,288.73401 c -93.98246,-93.98246 -246.95349,-93.96036 -340.93595,0.0221 -93.98246,93.98246 -93.98246,246.93139 0,340.91385 93.98246,93.98246 246.95349,94.00456 340.93595,0.0221 93.98246,-93.98246 93.98246,-246.97559 0,-340.95805 z m -42.38221,14.58408 -284.01386,284.01385 c -65.44286,-79.36786 -61.03487,-196.52877 13.23616,-270.7998 74.27102,-74.27102 191.40984,-78.65692 270.7777,-13.21405 z m 27.79814,27.79813 c 65.44286,79.36787 61.05696,196.50668 -13.21406,270.77771 -74.27103,74.27102 -191.43194,78.67902 -270.7998,13.23615 L 525.37809,331.11622 z"
         style="font-size:medium;font-style:normal;font-variant:normal;font-weight:normal;font-stretch:normal;text-indent:0;text-align:start;text-decoration:none;line-height:normal;letter-spacing:normal;word-spacing:normal;text-transform:none;direction:ltr;block-progression:tb;writing-mode:lr-tb;text-anchor:start;baseline-shift:baseline;color:#000000;fill:#ff0000;fill-opacity:1;fill-rule:nonzero;stroke:none;stroke-width:39.29999924;marker:none;visibility:visible;display:inline;overflow:visible;enable-background:accumulate;font-family:Sans;-inkscape-font-specification:Sans" />
      <rect
         transform="matrix(0.62848984,-0.77781779,0.77781779,0.62848984,0,0)"
         ry="13.485923"
         y="459"
         x="-123.14051"
         height="113.71912"
         width="28.429781"
         id="rect3844"
         style="color:#000000;fill:#000000;fill-opacity:1;fill-rule:nonzero;stroke:none;stroke-width:39.29999924;marker:none;visibility:visible;display:inline;overflow:visible;enable-background:accumulate" />
      <g
         transform="matrix(1.2666167,0,0,1.2666167,-99.574336,-76.40556)"
         id="g3958">
        <path
           style="color:#000000;fill:#000000;fill-opacity:1;fill-rule:nonzero;stroke:none;stroke-width:39.29999924;marker:none;visibility:visible;display:inline;overflow:visible;enable-background:accumulate"
           d="m 404.39694,283.21867 0,31.72035 c 0,9.56183 -7.69779,17.25961 -17.25962,17.25961 l -31.72034,0 c -9.56182,0 -17.25961,-7.69778 -17.25961,-17.25961 l 0,-11.21406 -11.06845,-0.47616 11.06845,-11.15273 0,-8.8774 c 0,-9.56182 7.69779,-17.2596 17.25961,-17.2596 l 31.72034,0 c 9.56183,0 17.25962,7.69778 17.25962,17.2596 z"
           id="rect3846"
           inkscape:connector-curvature="0"
           sodipodi:nodetypes="ssssscccssss" />
        <path
           style="color:#000000;fill:#ffffff;fill-opacity:1;fill-rule:nonzero;stroke:none;stroke-width:39.29999924;marker:none;visibility:visible;display:inline;overflow:visible;enable-background:accumulate"
           d="m 375.45942,283.00866 -3.67188,6.35987 c -6.2242,-0.97764 -12.68806,1.85138 -16.02688,7.63438 -4.33285,7.50471 -1.76269,17.09667 5.74203,21.42952 7.50471,4.33285 17.09667,1.76269 21.42952,-5.74202 3.33882,-5.783 2.58395,-12.77975 -1.37482,-17.68125 l 3.67188,-6.35987 -9.76985,-5.64063 z"
           id="path3920"
           inkscape:connector-curvature="0"
           inkscape:transform-center-y="-2.5105006" />
        <path
           style="fill:none;stroke:#ffffff;stroke-width:1px;stroke-linecap:butt;stroke-linejoin:miter;stroke-opacity:1"
           d="m 378.6272,289.01822 c 2.40498,-5.48039 6.6275,-6.87801 4.83584,-13.07459"
           id="path3925"
           inkscape:connector-curvature="0"
           sodipodi:nodetypes="cc" />
        <path
           sodipodi:type="star"
           style="color:#000000;fill:#ffffff;fill-opacity:1;fill-rule:nonzero;stroke:none;stroke-width:39.29999924;marker:none;visibility:visible;display:inline;overflow:visible;enable-background:accumulate"
           id="path3952"
           sodipodi:sides="10"
           sodipodi:cx="382.5675"
           sodipodi:cy="276.66"
           sodipodi:r1="8.4277086"
           sodipodi:r2="1.8237664"
           sodipodi:arg1="0.11460805"
           sodipodi:arg2="0.030864722"
           inkscape:flatsided="false"
           inkscape:rounded="0"
           inkscape:randomized="0"
           d="m 390.93993,277.62377 -6.54953,-0.90749 4.38405,5.64462 -4.76527,-4.58389 0.22895,7.14346 -1.16085,-6.5094 -4.0136,5.91376 2.88699,-5.94854 -6.72309,2.42519 5.83209,-3.11554 -6.86459,-1.98971 6.54953,0.90749 -4.38405,-5.64461 4.76527,4.58389 -0.22895,-7.14346 1.16085,6.50939 4.01359,-5.91375 -2.88698,5.94854 6.72308,-2.4252 -5.83208,3.11554 z"
           transform="translate(0.75280256,-0.88967575)" />
      </g>
    </g>
    <text
       xml:space="preserve"
       style="font-size:50.91762924px;font-style:normal;font-variant:normal;font-weight:normal;font-stretch:normal;text-align:center;line-height:125%;letter-spacing:0px;word-spacing:0px;text-anchor:middle;fill:#000000;fill-opacity:1;stroke:none;font-family:Arial;-inkscape-font-specification:Arial"
       x="372.92523"
       y="112.96305"
       id="text3954"
       sodipodi:linespacing="125%"><tspan
         sodipodi:role="line"
         id="tspan3956"
         x="372.92523"
         y="112.96305">este evento é</tspan></text>
    <text
       xml:space="preserve"
       style="font-size:26.42876434px;font-style:normal;font-variant:normal;font-weight:normal;font-stretch:normal;text-align:center;line-height:125%;letter-spacing:0px;word-spacing:0px;text-anchor:middle;fill:#000000;fill-opacity:1;stroke:none;font-family:Arial;-inkscape-font-specification:Arial"
       x="372.62076"
       y="838.04242"
       id="text3015"
       sodipodi:linespacing="125%"><tspan
         sodipodi:role="line"
         id="tspan3017"
         x="372.62076"
         y="838.04242"> http://experienciapositiva.com.br</tspan></text>
    <text
       xml:space="preserve"
       style="font-size:34.9104538px;font-style:normal;font-variant:normal;font-weight:bold;font-stretch:normal;text-align:center;line-height:125%;letter-spacing:0px;word-spacing:0px;writing-mode:lr-tb;text-anchor:middle;fill:#000000;fill-opacity:1;stroke:none;font-family:Aharoni;-inkscape-font-specification:Aharoni Bold"
       x="370.32465"
       y="953.35938"
       id="text3027"
       sodipodi:linespacing="125%"><tspan
         sodipodi:role="line"
         id="tspan3029"
         x="370.32465"
         y="953.35938" /></text>
    <g
       transform="matrix(0.27208043,0,0,0.27208043,207.3867,862.95264)"
       id="g3900"
       inkscape:export-filename="C:\Users\PauloS\Pictures\xp.png"
       inkscape:export-xdpi="59"
       inkscape:export-ydpi="59">
      <rect
         rx="31.392366"
         transform="matrix(0.70710678,-0.70710678,0.70710678,0.70710678,0,0)"
         ry="31.392366"
         y="172.54649"
         x="-165.52605"
         height="324.30365"
         width="324.30365"
         id="rect3876"
         style="color:#000000;fill:#ffff00;fill-opacity:1;fill-rule:nonzero;stroke:#ffffff;stroke-width:6.61988926;marker:none;visibility:visible;display:inline;overflow:visible;enable-background:accumulate" />
      <rect
         style="color:#000000;fill:#ffff00;fill-opacity:1;fill-rule:nonzero;stroke:#000000;stroke-width:5.97997522;marker:none;visibility:visible;display:inline;overflow:visible;enable-background:accumulate"
         id="rect3878"
         width="292.95471"
         height="292.95471"
         x="-149.85158"
         y="188.22096"
         ry="14.400979"
         transform="matrix(0.70710678,-0.70710678,0.70710678,0.70710678,0,0)" />
      <text
         transform="matrix(0,-1,1,0,0,0)"
         xml:space="preserve"
         style="font-size:182.37536621px;font-style:normal;font-variant:normal;font-weight:normal;font-stretch:normal;text-align:center;line-height:125%;letter-spacing:0px;word-spacing:0px;text-anchor:middle;fill:#000000;fill-opacity:1;stroke:none;font-family:Arial;-inkscape-font-specification:Arial"
         x="-235.87871"
         y="213.18228"
         id="text3880"
         sodipodi:linespacing="125%"><tspan
           sodipodi:role="line"
           id="tspan3882"
           x="-235.87871"
           y="213.18228">+</tspan></text>
      <text
         sodipodi:linespacing="125%"
         id="text3884"
         y="279.6955"
         x="272.19519"
         style="font-size:121.32627869px;font-style:normal;font-variant:normal;font-weight:900;font-stretch:normal;text-align:center;line-height:125%;letter-spacing:0px;word-spacing:0px;writing-mode:lr-tb;text-anchor:middle;fill:#000000;fill-opacity:1;stroke:none;font-family:Arial Black;-inkscape-font-specification:'Arial Black, Heavy'"
         xml:space="preserve"><tspan
           y="279.6955"
           x="272.19519"
           id="tspan3886"
           sodipodi:role="line">XP</tspan></text>
    </g>
    <path
       inkscape:connector-curvature="0"
       id="path4066"
       d="m 389.02299,927.99439 0,-60.47608 60.47609,0 60.47608,0 0,60.47608 0,60.47608 -60.47608,0 -60.47609,0 0,-60.47608 z m 35.95876,35.95875 0,-11.44142 -11.44143,0 -11.44141,0 0,11.44142 0,11.44143 11.44141,0 11.44143,0 0,-11.44143 z m -19.61387,0 0,-8.17244 8.17244,0 8.17245,0 0,8.17244 0,8.17245 -8.17245,0 -8.17244,0 0,-8.17245 z m 13.07591,0 0,-4.90346 -4.90347,0 -4.90346,0 0,4.90346 0,4.90347 4.90346,0 4.90347,0 0,-4.90347 z m 19.61387,9.80693 0,-1.63448 -1.63449,0 -1.63449,0 0,-1.63449 0,-1.63449 1.63449,0 1.63449,0 0,-1.63449 0,-1.63449 -3.26898,0 -3.26898,0 0,-1.63449 0,-1.63448 4.90347,0 4.90346,0 0,1.63448 0,1.63449 1.63449,0 1.63449,0 0,1.63449 0,1.63449 -1.63449,0 -1.63449,0 0,3.26898 0,3.26898 1.63449,0 1.63449,0 0,-1.6345 0,-1.63448 1.63449,0 1.63449,0 0,1.63448 0,1.6345 3.26897,0 3.26898,0 0,-3.26898 0,-3.26898 3.26898,0 3.26898,0 0,1.63449 0,1.63449 -1.63449,0 -1.63449,0 0,1.63448 0,1.6345 1.63449,0 1.63449,0 0,-1.6345 0,-1.63448 1.63448,0 1.63449,0 0,1.63448 0,1.6345 1.63449,0 1.63449,0 0,-1.6345 0,-1.63448 1.63449,0 1.63449,0 0,1.63448 0,1.6345 9.80693,0 9.80693,0 0,-1.6345 0,-1.63448 1.63449,0 1.63449,0 0,-3.26898 0,-3.26898 1.63449,0 1.63449,0 0,-1.63449 0,-1.63448 -3.26898,0 -3.26898,0 0,-1.6345 0,-1.63448 3.26898,0 3.26898,0 0,-1.63449 0,-1.63449 -3.26898,0 -3.26898,0 0,-1.63448 0,-1.6345 3.26898,0 3.26898,0 0,-3.26897 0,-3.26898 -1.63449,0 -1.63449,0 0,-1.63449 0,-1.63449 -1.63449,0 -1.63449,0 0,-4.90347 0,-4.90346 1.63449,0 1.63449,0 0,-1.63449 0,-1.63449 -1.63449,0 -1.63449,0 0,-4.90347 0,-4.90346 1.63449,0 1.63449,0 0,-1.63449 0,-1.63449 -1.63449,0 -1.63449,0 0,1.63449 0,1.63449 -3.26897,0 -3.26898,0 0,-4.90347 0,-4.90346 1.63449,0 1.63449,0 0,-1.63449 0,-1.63449 -1.63449,0 -1.63449,0 0,1.63449 0,1.63449 -1.63449,0 -1.63449,0 0,-1.63449 0,-1.63449 -1.63449,0 -1.63449,0 0,1.63449 0,1.63449 -1.63449,0 -1.63448,0 0,-1.63449 0,-1.63449 -1.63449,0 -1.63449,0 0,1.63449 0,1.63449 -1.63449,0 -1.63449,0 0,-1.63449 0,-1.63449 -1.63449,0 -1.63449,0 0,3.26898 0,3.26898 -8.17244,0 -8.17244,0 0,-1.63449 0,-1.63449 -3.26898,0 -3.26898,0 0,-3.26898 0,-3.26898 1.63449,0 1.63449,0 0,-1.63449 0,-1.63448 1.63449,0 1.63449,0 0,3.26897 0,3.26898 1.63449,0 1.63448,0 0,-3.26898 0,-3.26897 1.63449,0 1.63449,0 0,3.26897 0,3.26898 1.63449,0 1.63449,0 0,1.63449 0,1.63449 1.63449,0 1.63449,0 0,-1.63449 0,-1.63449 -1.63449,0 -1.63449,0 0,-3.26898 0,-3.26897 1.63449,0 1.63449,0 0,1.63448 0,1.63449 1.63448,0 1.63449,0 0,-1.63449 0,-1.63448 -1.63449,0 -1.63448,0 0,-1.63449 0,-1.63449 3.26897,0 3.26898,0 0,3.26898 0,3.26897 1.63449,0 1.63449,0 0,-4.90346 0,-4.90347 -4.90347,0 -4.90346,0 0,-1.63449 0,-1.63449 1.63448,0 1.63449,0 0,-3.26897 0,-3.26898 1.63449,0 1.63449,0 0,1.63449 0,1.63449 1.63449,0 1.63449,0 0,-3.26898 0,-3.26898 -3.26898,0 -3.26898,0 0,1.63449 0,1.63449 -1.63449,0 -1.63448,0 0,3.26898 0,3.26897 -1.63449,0 -1.63449,0 0,1.63449 0,1.63449 -1.63449,0 -1.63449,0 0,-1.63449 0,-1.63449 -1.63449,0 -1.63449,0 0,1.63449 0,1.63449 1.63449,0 1.63449,0 0,1.63449 0,1.63449 -3.26898,0 -3.26897,0 0,-3.26898 0,-3.26898 -1.63449,0 -1.63449,0 0,-1.63448 0,-1.63449 1.63449,0 1.63449,0 0,-1.63449 0,-1.63449 1.63449,0 1.63448,0 0,1.63449 0,1.63449 1.63449,0 1.63449,0 0,-1.63449 0,-1.63449 1.63449,0 1.63449,0 0,-1.63449 0,-1.63449 -1.63449,0 -1.63449,0 0,1.63449 0,1.63449 -1.63449,0 -1.63449,0 0,-1.63449 0,-1.63449 -1.63448,0 -1.63449,0 0,1.63449 0,1.63449 -1.63449,0 -1.63449,0 0,-1.63449 0,-1.63449 -1.63449,0 -1.63449,0 0,1.63449 0,1.63449 1.63449,0 1.63449,0 0,1.63449 0,1.63449 -1.63449,0 -1.63449,0 0,3.26897 0,3.26898 1.63449,0 1.63449,0 0,1.63449 0,1.63449 -3.26898,0 -3.26897,0 0,1.63449 0,1.63449 -1.63449,0 -1.63449,0 0,-3.26898 0,-3.26898 1.63449,0 1.63449,0 0,-1.63449 0,-1.63449 -4.90347,0 -4.90347,0 0,1.63449 0,1.63449 1.63449,0 1.63449,0 0,1.63449 0,1.63449 -1.63449,0 -1.63449,0 0,3.26898 0,3.26897 1.63449,0 1.63449,0 0,1.63449 0,1.63449 -4.90347,0 -4.90346,0 0,1.63449 0,1.63449 -1.63449,0 -1.63449,0 0,-1.63449 0,-1.63449 -8.17244,0 -8.17244,0 0,3.26898 0,3.26898 1.63448,0 1.63449,0 0,-1.63449 0,-1.63449 3.26898,0 3.26897,0 0,1.63449 0,1.63449 -1.63448,0 -1.63449,0 0,3.26897 0,3.26898 -1.63449,0 -1.63449,0 0,-1.63449 0,-1.63449 -1.63449,0 -1.63448,0 0,1.63449 0,1.63449 1.63448,0 1.63449,0 0,1.63449 0,1.63449 -1.63449,0 -1.63448,0 0,3.26898 0,3.26897 1.63448,0 1.63449,0 0,3.26898 0,3.26898 -1.63449,0 -1.63448,0 0,6.53795 0,6.53796 1.63448,0 1.63449,0 0,-6.53796 0,-6.53795 4.90347,0 4.90347,0 0,1.63448 0,1.6345 -1.6345,0 -1.63449,0 0,1.63449 0,1.63448 1.63449,0 1.6345,0 0,1.63449 0,1.63449 -3.26899,0 -3.26897,0 0,1.63449 0,1.63449 4.90346,0 4.90347,0 0,-3.26898 0,-3.26898 -1.63449,0 -1.63448,0 0,-1.63448 0,-1.63449 1.63448,0 1.63449,0 0,-1.6345 0,-1.63448 4.90347,0 4.90346,0 0,1.63448 0,1.6345 1.63449,0 1.63449,0 0,-1.6345 0,-1.63448 1.63449,0 1.63449,0 0,6.53795 0,6.53796 1.63449,0 1.63449,0 0,-6.53796 0,-6.53795 1.63448,0 1.63449,0 0,1.63448 0,1.6345 1.63449,0 1.63449,0 0,1.63449 0,1.63448 -1.63449,0 -1.63449,0 0,3.26898 0,3.26898 1.63449,0 1.63449,0 0,-1.63449 0,-1.63449 1.63449,0 1.63449,0 0,1.63449 0,1.63449 3.26897,0 3.26898,0 0,1.63448 0,1.63449 -1.63449,0 -1.63449,0 0,1.6345 0,1.63448 -1.63448,0 -1.63449,0 0,1.63449 0,1.63449 1.63449,0 1.63448,0 0,-1.63449 0,-1.63449 1.63449,0 1.63449,0 0,1.63449 0,1.63449 1.63449,0 1.63449,0 0,1.63448 0,1.6345 1.63449,0 1.63449,0 0,-1.6345 0,-1.63448 -1.63449,0 -1.63449,0 0,-1.63449 0,-1.63449 -1.63449,0 -1.63449,0 0,-1.63448 0,-1.6345 3.26898,0 3.26898,0 0,1.6345 0,1.63448 1.63448,0 1.63449,0 0,1.63449 0,1.63449 1.63449,0 1.63449,0 0,1.63448 0,1.6345 -1.63449,0 -1.63449,0 0,1.63448 0,1.63449 1.63449,0 1.63449,0 0,3.26898 0,3.26898 -1.63449,0 -1.63449,0 0,-1.63449 0,-1.63449 -1.63449,0 -1.63448,0 0,-1.63449 0,-1.63449 -4.90347,0 -4.90347,0 0,-1.63449 0,-1.63448 -4.90346,0 -4.90347,0 0,-3.26898 0,-3.26898 1.63449,0 1.63449,0 0,-1.63448 0,-1.6345 -3.26898,0 -3.26897,0 0,3.26898 0,3.26898 -4.90347,0 -4.90347,0 0,8.17244 0,8.17245 4.90347,0 4.90347,0 0,-1.6345 z m 9.80693,-3.26897 0,-1.63449 1.63449,0 1.63448,0 0,1.63449 0,1.63449 -1.63448,0 -1.63449,0 0,-1.63449 z m 26.15182,0 0,-1.63449 -1.63449,0 -1.63449,0 0,-1.63449 0,-1.63449 -1.63449,0 -1.63449,0 0,-1.63449 0,-1.63448 4.90347,0 4.90346,0 0,1.63448 0,1.63449 -1.63449,0 -1.63448,0 0,1.63449 0,1.63449 1.63448,0 1.63449,0 0,1.63449 0,1.63449 -1.63449,0 -1.63448,0 0,-1.63449 z m 6.53795,0 0,-1.63449 1.63449,0 1.63449,0 0,1.63449 0,1.63449 -1.63449,0 -1.63449,0 0,-1.63449 z m 6.53796,0 0,-1.63449 1.63448,0 1.63449,0 0,1.63449 0,1.63449 -1.63449,0 -1.63448,0 0,-1.63449 z m -6.53796,-6.53796 0,-1.63448 1.63449,0 1.63449,0 0,1.63448 0,1.63449 -1.63449,0 -1.63449,0 0,-1.63449 z m 6.53796,0 0,-1.63448 1.63448,0 1.63449,0 0,1.63448 0,1.63449 -1.63449,0 -1.63448,0 0,-1.63449 z m -16.34489,-9.80692 0,-4.90347 4.90346,0 4.90347,0 0,4.90347 0,4.90346 -4.90347,0 -4.90346,0 0,-4.90346 z m 6.53795,0 0,-1.6345 -1.63449,0 -1.63448,0 0,1.6345 0,1.63448 1.63448,0 1.63449,0 0,-1.63448 z m 9.80694,3.26897 0,-1.63449 1.63448,0 1.63449,0 0,1.63449 0,1.63449 -1.63449,0 -1.63448,0 0,-1.63449 z m -22.88285,-6.53796 0,-1.63448 -1.63449,0 -1.63448,0 0,-1.63449 0,-1.63449 -1.63449,0 -1.63449,0 0,1.63449 0,1.63449 -1.63449,0 -1.63449,0 0,-1.63449 0,-1.63449 -3.26898,0 -3.26897,0 0,-1.63449 0,-1.63449 4.90346,0 4.90347,0 0,-3.26897 0,-3.26898 -1.63449,0 -1.63449,0 0,1.63448 0,1.6345 -1.63449,0 -1.63449,0 0,-1.6345 0,-1.63448 -4.90346,0 -4.90347,0 0,-3.26898 0,-3.26898 1.63449,0 1.63449,0 0,-1.63449 0,-1.63448 -8.17244,0 -8.17245,0 0,1.63448 0,1.63449 3.26898,0 3.26898,0 0,1.63449 0,1.63449 -3.26898,0 -3.26898,0 0,-1.63449 0,-1.63449 -1.63449,0 -1.63448,0 0,1.63449 0,1.63449 -3.26898,0 -3.26898,0 0,-1.63449 0,-1.63449 -3.26897,0 -3.26899,0 0,1.63449 0,1.63449 -1.63448,0 -1.63449,0 0,-3.26898 0,-3.26897 -1.63449,0 -1.63449,0 0,-1.6345 0,-1.63448 1.63449,0 1.63449,0 0,-1.63449 0,-1.63449 3.26897,0 3.26899,0 0,-4.90347 0,-4.90346 1.63448,0 1.63449,0 0,1.63449 0,1.63449 1.63449,0 1.63449,0 0,-1.63449 0,-1.63449 1.63449,0 1.63449,0 0,1.63449 0,1.63449 -1.63449,0 -1.63449,0 0,1.63448 0,1.63449 1.63449,0 1.63449,0 0,1.63449 0,1.63449 3.26897,0 3.26898,0 0,-3.26898 0,-3.26897 -1.63449,0 -1.63449,0 0,-1.63449 0,-1.63449 3.26898,0 3.26898,0 0,-1.63449 0,-1.63449 1.63449,0 1.63449,0 0,1.63449 0,1.63449 1.63448,0 1.63449,0 0,1.63449 0,1.63449 1.63449,0 1.63449,0 0,1.63448 0,1.63449 -1.63449,0 -1.63449,0 0,3.26898 0,3.26898 1.63449,0 1.63449,0 0,-1.63449 0,-1.63449 1.63449,0 1.63449,0 0,-1.63449 0,-1.63449 1.63449,0 1.63448,0 0,1.63449 0,1.63449 3.26898,0 3.26898,0 0,-1.63449 0,-1.63449 3.26898,0 3.26897,0 0,-1.63449 0,-1.63448 1.63449,0 1.63449,0 0,1.63448 0,1.63449 1.63449,0 1.63449,0 0,1.63449 0,1.63449 1.63449,0 1.63449,0 0,-1.63449 0,-1.63449 1.63448,0 1.63449,0 0,1.63449 0,1.63449 3.26898,0 3.26898,0 0,1.63449 0,1.63449 1.63449,0 1.63449,0 0,3.26898 0,3.26897 1.63448,0 1.63449,0 0,1.63449 0,1.63449 -1.63449,0 -1.63448,0 0,1.63449 0,1.63449 -3.26898,0 -3.26898,0 0,1.63448 0,1.6345 1.63449,0 1.63449,0 0,1.63449 0,1.63448 3.26898,0 3.26897,0 0,1.63449 0,1.63449 -1.63449,0 -1.63448,0 0,1.63449 0,1.63449 -1.63449,0 -1.63449,0 0,-3.26898 0,-3.26898 -1.63449,0 -1.63449,0 0,-1.63448 0,-1.63449 -1.63449,0 -1.63449,0 0,3.26897 0,3.26898 -3.26897,0 -3.26898,0 0,-3.26898 0,-3.26897 3.26898,0 3.26897,0 0,-1.6345 0,-1.63448 -4.90346,0 -4.90347,0 0,-1.63449 0,-1.63449 3.26898,0 3.26898,0 0,-3.26898 0,-3.26897 -1.63449,0 -1.63449,0 0,1.63448 0,1.63449 -3.26898,0 -3.26898,0 0,4.90347 0,4.90347 1.63449,0 1.63449,0 0,6.53795 0,6.53795 -1.63449,0 -1.63449,0 0,-1.63449 z m 0,-6.53795 0,-1.63449 -1.63449,0 -1.63448,0 0,1.63449 0,1.63449 1.63448,0 1.63449,0 0,-1.63449 z m -3.26897,-9.80693 0,-1.63449 -1.63449,0 -1.63449,0 0,-3.26898 0,-3.26897 1.63449,0 1.63449,0 0,1.63448 0,1.63449 1.63448,0 1.63449,0 0,-1.63449 0,-1.63448 3.26898,0 3.26898,0 0,-1.6345 0,-1.63448 -4.90347,0 -4.90346,0 0,-1.63449 0,-1.63449 -1.63449,0 -1.63449,0 0,1.63449 0,1.63449 -1.63449,0 -1.63449,0 0,1.63448 0,1.6345 -1.63449,0 -1.63449,0 0,1.63448 0,1.63449 -1.63448,0 -1.63449,0 0,1.63449 0,1.63449 1.63449,0 1.63448,0 0,-1.63449 0,-1.63449 1.63449,0 1.63449,0 0,1.63449 0,1.63449 1.63449,0 1.63449,0 0,1.63449 0,1.63449 1.63449,0 1.63449,0 0,-1.63449 z m 19.61386,-3.26898 0,-1.63449 -1.63449,0 -1.63449,0 0,1.63449 0,1.63449 1.63449,0 1.63449,0 0,-1.63449 z m -55.57261,-3.26898 0,-1.63448 -3.26898,0 -3.26898,0 0,-1.6345 0,-1.63448 3.26898,0 3.26898,0 0,-1.63449 0,-1.63449 -3.26898,0 -3.26898,0 0,1.63449 0,1.63449 -1.63449,0 -1.63448,0 0,1.63448 0,1.6345 1.63448,0 1.63449,0 0,1.63448 0,1.63449 3.26898,0 3.26898,0 0,-1.63449 z m -13.07592,-3.26898 0,-1.63448 -1.63448,0 -1.63449,0 0,1.63448 0,1.6345 1.63449,0 1.63448,0 0,-1.6345 z m 71.91751,0 0,-1.63448 -4.90347,0 -4.90346,0 0,1.63448 0,1.6345 4.90346,0 4.90347,0 0,-1.6345 z m -45.76568,-3.26897 0,-1.63449 -3.26898,0 -3.26898,0 0,1.63449 0,1.63449 3.26898,0 3.26898,0 0,-1.63449 z m 13.0759,0 0,-1.63449 -1.63448,0 -1.63449,0 0,1.63449 0,1.63449 1.63449,0 1.63448,0 0,-1.63449 z m 16.34489,-3.26898 0,-1.63449 -1.63449,0 -1.63449,0 0,1.63449 0,1.63449 1.63449,0 1.63449,0 0,-1.63449 z m -29.42079,-4.90346 0,-3.26898 -1.63449,0 -1.63449,0 0,3.26898 0,3.26897 1.63449,0 1.63449,0 0,-3.26897 z m 32.68977,-1.63449 0,-1.63449 1.63449,0 1.63449,0 0,1.63449 0,1.63449 -1.63449,0 -1.63449,0 0,-1.63449 z m -39.22773,-9.80694 0,-1.63448 1.63449,0 1.63449,0 0,1.63448 0,1.63449 -1.63449,0 -1.63449,0 0,-1.63449 z m 6.53796,0 0,-1.63448 1.63448,0 1.63449,0 0,1.63448 0,1.63449 -1.63449,0 -1.63448,0 0,-1.63449 z m 16.34488,-3.26897 0,-1.63449 1.63449,0 1.63449,0 0,1.63449 0,1.63449 -1.63449,0 -1.63449,0 0,-1.63449 z m -22.88284,53.93812 0,-3.26897 -1.63449,0 -1.63449,0 0,3.26897 0,3.26898 1.63449,0 1.63449,0 0,-3.26898 z m -6.53795,-4.90346 0,-1.63449 3.26897,0 3.26898,0 0,-1.63449 0,-1.63449 -3.26898,0 -3.26897,0 0,-1.63448 0,-1.63449 -1.63449,0 -1.63449,0 0,1.63449 0,1.63448 1.63449,0 1.63449,0 0,1.63449 0,1.63449 -1.63449,0 -1.63449,0 0,1.63449 0,1.63449 1.63449,0 1.63449,0 0,-1.63449 z m 71.9175,-9.80694 0,-1.63448 -1.63449,0 -1.63449,0 0,1.63448 0,1.6345 1.63449,0 1.63449,0 0,-1.6345 z m 0,-13.07591 0,-1.63448 -1.63449,0 -1.63449,0 0,1.63448 0,1.6345 1.63449,0 1.63449,0 0,-1.6345 z m 0,-13.0759 0,-1.63449 -1.63449,0 -1.63449,0 0,-1.63449 0,-1.63449 -1.63449,0 -1.63449,0 0,1.63449 0,1.63449 1.63449,0 1.63449,0 0,1.63449 0,1.63449 1.63449,0 1.63449,0 0,-1.63449 z m -71.9175,-19.61387 0,-11.44142 -11.44143,0 -11.44141,0 0,11.44142 0,11.44142 11.44141,0 11.44143,0 0,-11.44142 z m -19.61387,0 0,-8.17244 8.17244,0 8.17245,0 0,8.17244 0,8.17245 -8.17245,0 -8.17244,0 0,-8.17245 z m 13.07591,0 0,-4.90346 -4.90347,0 -4.90346,0 0,4.90346 0,4.90347 4.90346,0 4.90347,0 0,-4.90347 z m 78.45546,0 0,-11.44142 -11.44142,0 -11.44142,0 0,11.44142 0,11.44142 11.44142,0 11.44142,0 0,-11.44142 z m -19.61387,0 0,-8.17244 8.17245,0 8.17244,0 0,8.17244 0,8.17245 -8.17244,0 -8.17245,0 0,-8.17245 z m 13.07591,0 0,-4.90346 -4.90346,0 -4.90347,0 0,4.90346 0,4.90347 4.90347,0 4.90346,0 0,-4.90347 z m -58.84159,-6.53795 0,-1.63449 -1.63449,0 -1.63449,0 0,1.63449 0,1.63449 1.63449,0 1.63449,0 0,-1.63449 z m 6.53796,-1.63449 0,-3.26898 -1.63449,0 -1.63449,0 0,3.26898 0,3.26898 1.63449,0 1.63449,0 0,-3.26898 z"
       style="fill:#e6e6e6" />
    <path
       inkscape:connector-curvature="0"
       id="path4064"
       d="m 402.09891,963.95314 0,-11.44142 11.44141,0 11.44143,0 0,11.44142 0,11.44143 -11.44143,0 -11.44141,0 0,-11.44143 z m 19.61386,0 0,-8.17244 -8.17245,0 -8.17244,0 0,8.17244 0,8.17245 8.17244,0 8.17245,0 0,-8.17245 z m -13.07591,0 0,-4.90346 4.90346,0 4.90347,0 0,4.90346 0,4.90347 -4.90347,0 -4.90346,0 0,-4.90347 z m 19.61386,3.26898 0,-8.17244 4.90347,0 4.90347,0 0,-3.26898 0,-3.26898 3.26897,0 3.26898,0 0,1.6345 0,1.63448 -1.63449,0 -1.63449,0 0,3.26898 0,3.26898 4.90347,0 4.90346,0 0,1.63448 0,1.63449 4.90347,0 4.90347,0 0,1.63449 0,1.63449 1.63448,0 1.63449,0 0,1.63449 0,1.63449 1.63449,0 1.63449,0 0,-3.26898 0,-3.26898 -1.63449,0 -1.63449,0 0,-1.63449 0,-1.63448 1.63449,0 1.63449,0 0,-1.6345 0,-1.63448 -1.63449,0 -1.63449,0 0,-1.63449 0,-1.63449 -1.63449,0 -1.63448,0 0,-1.63448 0,-1.6345 -3.26898,0 -3.26898,0 0,1.6345 0,1.63448 1.63449,0 1.63449,0 0,1.63449 0,1.63449 1.63449,0 1.63449,0 0,1.63448 0,1.6345 -1.63449,0 -1.63449,0 0,-1.6345 0,-1.63448 -1.63449,0 -1.63449,0 0,-1.63449 0,-1.63449 -1.63449,0 -1.63449,0 0,1.63449 0,1.63449 -1.63448,0 -1.63449,0 0,-1.63449 0,-1.63449 1.63449,0 1.63448,0 0,-1.63448 0,-1.6345 1.63449,0 1.63449,0 0,-1.63449 0,-1.63448 -3.26898,0 -3.26897,0 0,-1.63449 0,-1.63449 -1.63449,0 -1.63449,0 0,1.63449 0,1.63449 -1.63449,0 -1.63449,0 0,-3.26898 0,-3.26898 1.63449,0 1.63449,0 0,-1.63448 0,-1.63449 -1.63449,0 -1.63449,0 0,-1.6345 0,-1.63448 -1.63449,0 -1.63448,0 0,6.53795 0,6.53796 -1.63449,0 -1.63449,0 0,-6.53796 0,-6.53795 -1.63449,0 -1.63449,0 0,1.63448 0,1.6345 -1.63449,0 -1.63449,0 0,-1.6345 0,-1.63448 -4.90346,0 -4.90347,0 0,1.63448 0,1.6345 -1.63449,0 -1.63448,0 0,1.63449 0,1.63448 1.63448,0 1.63449,0 0,3.26898 0,3.26898 -4.90347,0 -4.90346,0 0,-1.63449 0,-1.63449 3.26897,0 3.26899,0 0,-1.63449 0,-1.63449 -1.6345,0 -1.63449,0 0,-1.63448 0,-1.63449 1.63449,0 1.6345,0 0,-1.6345 0,-1.63448 -4.90347,0 -4.90347,0 0,6.53795 0,6.53796 -1.63449,0 -1.63448,0 0,-6.53796 0,-6.53795 1.63448,0 1.63449,0 0,-3.26898 0,-3.26898 -1.63449,0 -1.63448,0 0,-3.26897 0,-3.26898 1.63448,0 1.63449,0 0,-1.63449 0,-1.63449 -1.63449,0 -1.63448,0 0,-1.63449 0,-1.63449 1.63448,0 1.63449,0 0,1.63449 0,1.63449 1.63449,0 1.63449,0 0,-3.26898 0,-3.26897 1.63449,0 1.63448,0 0,-1.63449 0,-1.63449 -3.26897,0 -3.26898,0 0,1.63449 0,1.63449 -1.63449,0 -1.63448,0 0,-3.26898 0,-3.26898 8.17244,0 8.17244,0 0,1.63449 0,1.63449 1.63449,0 1.63449,0 0,-1.63449 0,-1.63449 4.90346,0 4.90347,0 0,-1.63449 0,-1.63449 -1.63449,0 -1.63449,0 0,-3.26897 0,-3.26898 1.63449,0 1.63449,0 0,-1.63449 0,-1.63449 -1.63449,0 -1.63449,0 0,-1.63449 0,-1.63449 4.90347,0 4.90347,0 0,1.63449 0,1.63449 -1.63449,0 -1.63449,0 0,3.26898 0,3.26898 1.63449,0 1.63449,0 0,-1.63449 0,-1.63449 3.26897,0 3.26898,0 0,-1.63449 0,-1.63449 -1.63449,0 -1.63449,0 0,-3.26898 0,-3.26897 1.63449,0 1.63449,0 0,-1.63449 0,-1.63449 -1.63449,0 -1.63449,0 0,-1.63449 0,-1.63449 1.63449,0 1.63449,0 0,1.63449 0,1.63449 1.63449,0 1.63449,0 0,-1.63449 0,-1.63449 1.63449,0 1.63448,0 0,1.63449 0,1.63449 1.63449,0 1.63449,0 0,-1.63449 0,-1.63449 1.63449,0 1.63449,0 0,1.63449 0,1.63449 -1.63449,0 -1.63449,0 0,1.63449 0,1.63449 -1.63449,0 -1.63449,0 0,-1.63449 0,-1.63449 -1.63448,0 -1.63449,0 0,1.63449 0,1.63449 -1.63449,0 -1.63449,0 0,1.63449 0,1.63448 1.63449,0 1.63449,0 0,3.26898 0,3.26898 3.26897,0 3.26898,0 0,-1.63449 0,-1.63449 -1.63449,0 -1.63449,0 0,-1.63449 0,-1.63449 1.63449,0 1.63449,0 0,1.63449 0,1.63449 1.63449,0 1.63449,0 0,-1.63449 0,-1.63449 1.63449,0 1.63449,0 0,-3.26897 0,-3.26898 1.63448,0 1.63449,0 0,-1.63449 0,-1.63449 3.26898,0 3.26898,0 0,3.26898 0,3.26898 -1.63449,0 -1.63449,0 0,-1.63449 0,-1.63449 -1.63449,0 -1.63449,0 0,3.26898 0,3.26897 -1.63449,0 -1.63448,0 0,1.63449 0,1.63449 4.90346,0 4.90347,0 0,4.90347 0,4.90346 -1.63449,0 -1.63449,0 0,-3.26897 0,-3.26898 -3.26898,0 -3.26897,0 0,1.63449 0,1.63449 1.63448,0 1.63449,0 0,1.63448 0,1.63449 -1.63449,0 -1.63448,0 0,-1.63449 0,-1.63448 -1.63449,0 -1.63449,0 0,3.26897 0,3.26898 1.63449,0 1.63449,0 0,1.63449 0,1.63449 -1.63449,0 -1.63449,0 0,-1.63449 0,-1.63449 -1.63449,0 -1.63449,0 0,-3.26898 0,-3.26897 -1.63449,0 -1.63449,0 0,3.26897 0,3.26898 -1.63448,0 -1.63449,0 0,-3.26898 0,-3.26897 -1.63449,0 -1.63449,0 0,1.63448 0,1.63449 -1.63449,0 -1.63449,0 0,3.26898 0,3.26898 3.26898,0 3.26898,0 0,1.63449 0,1.63449 8.17244,0 8.17244,0 0,-3.26898 0,-3.26898 1.63449,0 1.63449,0 0,1.63449 0,1.63449 1.63449,0 1.63449,0 0,-1.63449 0,-1.63449 1.63449,0 1.63449,0 0,1.63449 0,1.63449 1.63448,0 1.63449,0 0,-1.63449 0,-1.63449 1.63449,0 1.63449,0 0,1.63449 0,1.63449 1.63449,0 1.63449,0 0,-1.63449 0,-1.63449 1.63449,0 1.63449,0 0,1.63449 0,1.63449 -1.63449,0 -1.63449,0 0,4.90346 0,4.90347 3.26898,0 3.26897,0 0,-1.63449 0,-1.63449 1.63449,0 1.63449,0 0,1.63449 0,1.63449 -1.63449,0 -1.63449,0 0,4.90346 0,4.90347 1.63449,0 1.63449,0 0,1.63449 0,1.63449 -1.63449,0 -1.63449,0 0,4.90346 0,4.90347 1.63449,0 1.63449,0 0,1.63449 0,1.63449 1.63449,0 1.63449,0 0,3.26898 0,3.26897 -3.26898,0 -3.26898,0 0,1.6345 0,1.63448 3.26898,0 3.26898,0 0,1.63449 0,1.63449 -3.26898,0 -3.26898,0 0,1.63448 0,1.6345 3.26898,0 3.26898,0 0,1.63448 0,1.63449 -1.63449,0 -1.63449,0 0,3.26898 0,3.26898 -1.63449,0 -1.63449,0 0,1.63448 0,1.6345 -9.80693,0 -9.80693,0 0,-1.6345 0,-1.63448 -1.63449,0 -1.63449,0 0,1.63448 0,1.6345 -1.63449,0 -1.63449,0 0,-1.6345 0,-1.63448 -1.63449,0 -1.63448,0 0,1.63448 0,1.6345 -1.63449,0 -1.63449,0 0,-1.6345 0,-1.63448 1.63449,0 1.63449,0 0,-1.63449 0,-1.63449 -3.26898,0 -3.26898,0 0,3.26898 0,3.26898 -3.26898,0 -3.26897,0 0,-1.6345 0,-1.63448 -1.63449,0 -1.63449,0 0,1.63448 0,1.6345 -1.63449,0 -1.63449,0 0,-3.26898 0,-3.26898 1.63449,0 1.63449,0 0,-1.63449 0,-1.63449 -1.63449,0 -1.63449,0 0,-1.63449 0,-1.63448 -4.90346,0 -4.90347,0 0,1.63448 0,1.63449 3.26898,0 3.26898,0 0,1.63449 0,1.63449 -1.63449,0 -1.63449,0 0,1.63449 0,1.63449 1.63449,0 1.63449,0 0,1.63448 0,1.6345 -4.90347,0 -4.90347,0 0,-8.17245 z m 22.88284,3.26898 0,-1.63449 -1.63448,0 -1.63449,0 0,1.63449 0,1.63449 1.63449,0 1.63448,0 0,-1.63449 z m 26.15182,0 0,-1.63449 -1.63449,0 -1.63448,0 0,-1.63449 0,-1.63449 1.63448,0 1.63449,0 0,-1.63449 0,-1.63448 -4.90346,0 -4.90347,0 0,1.63448 0,1.63449 1.63449,0 1.63449,0 0,1.63449 0,1.63449 1.63449,0 1.63449,0 0,1.63449 0,1.63449 1.63448,0 1.63449,0 0,-1.63449 z m 6.53796,0 0,-1.63449 -1.63449,0 -1.63449,0 0,1.63449 0,1.63449 1.63449,0 1.63449,0 0,-1.63449 z m 6.53795,0 0,-1.63449 -1.63449,0 -1.63448,0 0,1.63449 0,1.63449 1.63448,0 1.63449,0 0,-1.63449 z m -6.53795,-6.53796 0,-1.63448 -1.63449,0 -1.63449,0 0,1.63448 0,1.63449 1.63449,0 1.63449,0 0,-1.63449 z m 6.53795,0 0,-1.63448 -1.63449,0 -1.63448,0 0,1.63448 0,1.63449 1.63448,0 1.63449,0 0,-1.63449 z m -9.80693,-9.80692 0,-4.90347 -4.90347,0 -4.90346,0 0,4.90347 0,4.90346 4.90346,0 4.90347,0 0,-4.90346 z m -6.53795,0 0,-1.6345 1.63448,0 1.63449,0 0,1.6345 0,1.63448 -1.63449,0 -1.63448,0 0,-1.63448 z m 16.34488,3.26897 0,-1.63449 -1.63449,0 -1.63448,0 0,1.63449 0,1.63449 1.63448,0 1.63449,0 0,-1.63449 z m -22.88284,-11.44142 0,-6.53795 -1.63449,0 -1.63449,0 0,-4.90347 0,-4.90347 3.26898,0 3.26898,0 0,-1.63449 0,-1.63448 1.63449,0 1.63449,0 0,3.26897 0,3.26898 -3.26898,0 -3.26898,0 0,1.63449 0,1.63449 4.90347,0 4.90346,0 0,1.63448 0,1.6345 -3.26897,0 -3.26898,0 0,3.26897 0,3.26898 3.26898,0 3.26897,0 0,-3.26898 0,-3.26897 1.63449,0 1.63449,0 0,1.63449 0,1.63448 1.63449,0 1.63449,0 0,3.26898 0,3.26898 1.63449,0 1.63449,0 0,-1.63449 0,-1.63449 1.63448,0 1.63449,0 0,-1.63449 0,-1.63449 -3.26897,0 -3.26898,0 0,-1.63448 0,-1.63449 -1.63449,0 -1.63449,0 0,-1.6345 0,-1.63448 3.26898,0 3.26898,0 0,-1.63449 0,-1.63449 1.63448,0 1.63449,0 0,-1.63449 0,-1.63449 -1.63449,0 -1.63448,0 0,-3.26897 0,-3.26898 -1.63449,0 -1.63449,0 0,-1.63449 0,-1.63449 -3.26898,0 -3.26898,0 0,-1.63449 0,-1.63449 -1.63449,0 -1.63448,0 0,1.63449 0,1.63449 -1.63449,0 -1.63449,0 0,-1.63449 0,-1.63449 -1.63449,0 -1.63449,0 0,-1.63449 0,-1.63448 -1.63449,0 -1.63449,0 0,1.63448 0,1.63449 -3.26897,0 -3.26898,0 0,1.63449 0,1.63449 -3.26898,0 -3.26898,0 0,-1.63449 0,-1.63449 -1.63448,0 -1.63449,0 0,1.63449 0,1.63449 -1.63449,0 -1.63449,0 0,1.63449 0,1.63449 -1.63449,0 -1.63449,0 0,-3.26898 0,-3.26898 1.63449,0 1.63449,0 0,-1.63449 0,-1.63448 -1.63449,0 -1.63449,0 0,-1.63449 0,-1.63449 -1.63449,0 -1.63448,0 0,-1.63449 0,-1.63449 -1.63449,0 -1.63449,0 0,1.63449 0,1.63449 -3.26898,0 -3.26898,0 0,1.63449 0,1.63449 1.63449,0 1.63449,0 0,3.26897 0,3.26898 -3.26898,0 -3.26897,0 0,-1.63449 0,-1.63449 -1.63449,0 -1.63449,0 0,-1.63449 0,-1.63448 1.63449,0 1.63449,0 0,-1.63449 0,-1.63449 -1.63449,0 -1.63449,0 0,1.63449 0,1.63449 -1.63449,0 -1.63449,0 0,-1.63449 0,-1.63449 -1.63449,0 -1.63448,0 0,4.90346 0,4.90347 -3.26899,0 -3.26897,0 0,1.63449 0,1.63449 -1.63449,0 -1.63449,0 0,1.63448 0,1.6345 1.63449,0 1.63449,0 0,3.26897 0,3.26898 1.63449,0 1.63448,0 0,-1.63449 0,-1.63449 3.26899,0 3.26897,0 0,1.63449 0,1.63449 3.26898,0 3.26898,0 0,-1.63449 0,-1.63449 1.63448,0 1.63449,0 0,1.63449 0,1.63449 3.26898,0 3.26898,0 0,-1.63449 0,-1.63449 -3.26898,0 -3.26898,0 0,-1.63449 0,-1.63448 8.17245,0 8.17244,0 0,1.63448 0,1.63449 -1.63449,0 -1.63449,0 0,3.26898 0,3.26898 4.90347,0 4.90346,0 0,1.63448 0,1.6345 1.63449,0 1.63449,0 0,-1.6345 0,-1.63448 1.63449,0 1.63449,0 0,3.26898 0,3.26897 -4.90347,0 -4.90346,0 0,1.63449 0,1.63449 3.26897,0 3.26898,0 0,1.63449 0,1.63449 1.63449,0 1.63449,0 0,-1.63449 0,-1.63449 1.63449,0 1.63449,0 0,1.63449 0,1.63449 1.63448,0 1.63449,0 0,1.63448 0,1.63449 1.63449,0 1.63449,0 0,-6.53795 z m -6.53795,-1.63449 0,-1.63449 1.63448,0 1.63449,0 0,1.63449 0,1.63449 -1.63449,0 -1.63448,0 0,-1.63449 z m -3.26898,-9.80693 0,-1.63449 -1.63449,0 -1.63449,0 0,-1.63449 0,-1.63449 -1.63449,0 -1.63449,0 0,1.63449 0,1.63449 -1.63448,0 -1.63449,0 0,-1.63449 0,-1.63449 1.63449,0 1.63448,0 0,-1.63449 0,-1.63448 1.63449,0 1.63449,0 0,-1.6345 0,-1.63448 1.63449,0 1.63449,0 0,-1.63449 0,-1.63449 1.63449,0 1.63449,0 0,1.63449 0,1.63449 4.90346,0 4.90347,0 0,1.63448 0,1.6345 -3.26898,0 -3.26898,0 0,1.63448 0,1.63449 -1.63449,0 -1.63448,0 0,-1.63449 0,-1.63448 -1.63449,0 -1.63449,0 0,3.26897 0,3.26898 1.63449,0 1.63449,0 0,1.63449 0,1.63449 -1.63449,0 -1.63449,0 0,-1.63449 z m 19.61386,-3.26898 0,-1.63449 1.63449,0 1.63449,0 0,1.63449 0,1.63449 -1.63449,0 -1.63449,0 0,-1.63449 z m -58.84159,-3.26898 0,-1.63448 -1.63449,0 -1.63448,0 0,-1.6345 0,-1.63448 1.63448,0 1.63449,0 0,-1.63449 0,-1.63449 3.26898,0 3.26898,0 0,1.63449 0,1.63449 -3.26898,0 -3.26898,0 0,1.63448 0,1.6345 3.26898,0 3.26898,0 0,1.63448 0,1.63449 -3.26898,0 -3.26898,0 0,-1.63449 z m -9.80693,-3.26898 0,-1.63448 1.63449,0 1.63448,0 0,1.63448 0,1.6345 -1.63448,0 -1.63449,0 0,-1.6345 z m 65.37955,0 0,-1.63448 4.90346,0 4.90347,0 0,1.63448 0,1.6345 -4.90347,0 -4.90346,0 0,-1.6345 z m -42.49671,-3.26897 0,-1.63449 3.26898,0 3.26898,0 0,1.63449 0,1.63449 -3.26898,0 -3.26898,0 0,-1.63449 z m 16.34489,0 0,-1.63449 1.63449,0 1.63448,0 0,1.63449 0,1.63449 -1.63448,0 -1.63449,0 0,-1.63449 z m 16.34488,-3.26898 0,-1.63449 1.63449,0 1.63449,0 0,1.63449 0,1.63449 -1.63449,0 -1.63449,0 0,-1.63449 z m -29.42079,-4.90346 0,-3.26898 1.63449,0 1.63449,0 0,3.26898 0,3.26897 -1.63449,0 -1.63449,0 0,-3.26897 z m 39.22773,-1.63449 0,-1.63449 -1.63449,0 -1.63449,0 0,1.63449 0,1.63449 1.63449,0 1.63449,0 0,-1.63449 z m -39.22773,-9.80694 0,-1.63448 -1.63449,0 -1.63449,0 0,1.63448 0,1.63449 1.63449,0 1.63449,0 0,-1.63449 z m 6.53795,0 0,-1.63448 -1.63449,0 -1.63448,0 0,1.63448 0,1.63449 1.63448,0 1.63449,0 0,-1.63449 z m 16.34489,-3.26897 0,-1.63449 -1.63449,0 -1.63449,0 0,1.63449 0,1.63449 1.63449,0 1.63449,0 0,-1.63449 z m -29.4208,53.93812 0,-3.26897 1.63449,0 1.63449,0 0,3.26897 0,3.26898 -1.63449,0 -1.63449,0 0,-3.26898 z m -6.53795,-4.90346 0,-1.63449 1.63449,0 1.63449,0 0,-1.63449 0,-1.63449 -1.63449,0 -1.63449,0 0,-1.63448 0,-1.63449 1.63449,0 1.63449,0 0,1.63449 0,1.63448 3.26897,0 3.26898,0 0,1.63449 0,1.63449 -3.26898,0 -3.26897,0 0,1.63449 0,1.63449 -1.63449,0 -1.63449,0 0,-1.63449 z m 71.9175,-9.80694 0,-1.63448 1.63449,0 1.63449,0 0,1.63448 0,1.6345 -1.63449,0 -1.63449,0 0,-1.6345 z m 0,-13.07591 0,-1.63448 1.63449,0 1.63449,0 0,1.63448 0,1.6345 -1.63449,0 -1.63449,0 0,-1.6345 z m 0,-13.0759 0,-1.63449 -1.63449,0 -1.63449,0 0,-1.63449 0,-1.63449 1.63449,0 1.63449,0 0,1.63449 0,1.63449 1.63449,0 1.63449,0 0,1.63449 0,1.63449 -1.63449,0 -1.63449,0 0,-1.63449 z m -91.53136,-19.61387 0,-11.44142 11.44141,0 11.44143,0 0,11.44142 0,11.44142 -11.44143,0 -11.44141,0 0,-11.44142 z m 19.61386,0 0,-8.17244 -8.17245,0 -8.17244,0 0,8.17244 0,8.17245 8.17244,0 8.17245,0 0,-8.17245 z m -13.07591,0 0,-4.90346 4.90346,0 4.90347,0 0,4.90346 0,4.90347 -4.90347,0 -4.90346,0 0,-4.90347 z m 65.37955,0 0,-11.44142 11.44142,0 11.44142,0 0,11.44142 0,11.44142 -11.44142,0 -11.44142,0 0,-11.44142 z m 19.61386,0 0,-8.17244 -8.17244,0 -8.17245,0 0,8.17244 0,8.17245 8.17245,0 8.17244,0 0,-8.17245 z m -13.07591,0 0,-4.90346 4.90347,0 4.90346,0 0,4.90346 0,4.90347 -4.90346,0 -4.90347,0 0,-4.90347 z m -52.30364,-6.53795 0,-1.63449 1.63449,0 1.63449,0 0,1.63449 0,1.63449 -1.63449,0 -1.63449,0 0,-1.63449 z m 6.53796,-1.63449 0,-3.26898 1.63449,0 1.63449,0 0,3.26898 0,3.26898 -1.63449,0 -1.63449,0 0,-3.26898 z"
       style="fill:#000000" />
    <g
       id="g4117"
       transform="translate(0.71453806,0)">
      <text
         sodipodi:linespacing="125%"
         id="text3031"
         y="807.78888"
         x="372.51813"
         style="font-size:26.36643791px;font-style:normal;font-variant:normal;font-weight:bold;font-stretch:normal;text-align:center;line-height:125%;letter-spacing:0px;word-spacing:0px;writing-mode:lr-tb;text-anchor:middle;fill:#000000;fill-opacity:1;stroke:none;font-family:Aharoni;-inkscape-font-specification:Aharoni Bold"
         xml:space="preserve"><tspan
           y="807.78888"
           x="372.51813"
           id="tspan3033"
           sodipodi:role="line">ASSEDIO E DISCRIMINACAO</tspan></text>
      <path
         sodipodi:type="star"
         style="color:#000000;fill:#000000;fill-opacity:1;fill-rule:nonzero;stroke:none;stroke-width:39.29999924;marker:none;visibility:visible;display:inline;overflow:visible;enable-background:accumulate"
         id="path4094"
         sodipodi:sides="3"
         sodipodi:cx="56.435726"
         sodipodi:cy="173.57729"
         sodipodi:r1="18.427994"
         sodipodi:r2="0.87329668"
         sodipodi:arg1="1.5707963"
         sodipodi:arg2="2.6179939"
         inkscape:flatsided="true"
         inkscape:rounded="0"
         inkscape:randomized="0"
         d="m 56.435727,192.00528 -15.959112,-27.64199 31.918222,0 z"
         transform="matrix(0.22125438,0,0,0.10699727,242.41039,768.57501)" />
      <path
         transform="matrix(0.21480489,0.0530317,-0.02564581,0.10387833,505.86771,765.67656)"
         d="m 56.435727,192.00528 -15.959112,-27.64199 31.918222,0 z"
         inkscape:randomized="0"
         inkscape:rounded="0"
         inkscape:flatsided="true"
         sodipodi:arg2="2.6179939"
         sodipodi:arg1="1.5707963"
         sodipodi:r2="0.87329668"
         sodipodi:r1="18.427994"
         sodipodi:cy="173.57729"
         sodipodi:cx="56.435726"
         sodipodi:sides="3"
         id="path4096"
         style="color:#000000;fill:#000000;fill-opacity:1;fill-rule:nonzero;stroke:none;stroke-width:39.29999924;marker:none;visibility:visible;display:inline;overflow:visible;enable-background:accumulate"
         sodipodi:type="star" />
      <path
         sodipodi:type="star"
         style="color:#000000;fill:#000000;fill-opacity:1;fill-rule:nonzero;stroke:none;stroke-width:39.29999924;marker:none;visibility:visible;display:inline;overflow:visible;enable-background:accumulate"
         id="path4098"
         sodipodi:sides="3"
         sodipodi:cx="56.435726"
         sodipodi:cy="173.57729"
         sodipodi:r1="18.427994"
         sodipodi:r2="0.87329668"
         sodipodi:arg1="1.5707963"
         sodipodi:arg2="2.6179939"
         inkscape:flatsided="true"
         inkscape:rounded="0"
         inkscape:randomized="0"
         d="m 56.435727,192.00528 -15.959112,-27.64199 31.918222,0 z"
         transform="matrix(0.21480489,0.0530317,0.02564581,-0.10387833,500.63161,802.25187)" />
      <path
         inkscape:transform-center-y="-3.530334"
         inkscape:transform-center-x="1.5133981"
         sodipodi:type="star"
         style="color:#000000;fill:#000000;fill-opacity:1;fill-rule:nonzero;stroke:none;stroke-width:39.29999924;marker:none;visibility:visible;display:inline;overflow:visible;enable-background:accumulate"
         id="path4100"
         sodipodi:sides="3"
         sodipodi:cx="56.435726"
         sodipodi:cy="173.57729"
         sodipodi:r1="18.427994"
         sodipodi:r2="0.87329668"
         sodipodi:arg1="1.5707963"
         sodipodi:arg2="2.6179939"
         inkscape:flatsided="true"
         inkscape:rounded="0"
         inkscape:randomized="0"
         d="m 56.435727,192.00528 -15.959112,-27.64199 31.918222,0 z"
         transform="matrix(0.00437091,0.2212112,-0.10697639,0.00211374,518.0895,797.66206)" />
    </g>
    <g
       id="g4112">
      <text
         xml:space="preserve"
         style="font-size:26.36643791px;font-style:normal;font-variant:normal;font-weight:bold;font-stretch:normal;text-align:center;line-height:125%;letter-spacing:0px;word-spacing:0px;writing-mode:lr-tb;text-anchor:middle;fill:#000000;fill-opacity:1;stroke:none;font-family:Aharoni;-inkscape-font-specification:Aharoni Bold"
         x="372.36365"
         y="781.4588"
         id="text3023"
         sodipodi:linespacing="125%"><tspan
           sodipodi:role="line"
           id="tspan3025"
           x="372.36365"
           y="781.4588">CAMPANHA DE TOLERANCIA ZERO PARA</tspan></text>
      <path
         transform="matrix(0.22125438,0,0,-0.10699727,389.04411,778.70547)"
         d="m 56.435727,192.00528 -15.959112,-27.64199 31.918222,0 z"
         inkscape:randomized="0"
         inkscape:rounded="0"
         inkscape:flatsided="true"
         sodipodi:arg2="2.6179939"
         sodipodi:arg1="1.5707963"
         sodipodi:r2="0.87329668"
         sodipodi:r1="18.427994"
         sodipodi:cy="173.57729"
         sodipodi:cx="56.435726"
         sodipodi:sides="3"
         id="path4104"
         style="color:#000000;fill:#000000;fill-opacity:1;fill-rule:nonzero;stroke:none;stroke-width:39.29999924;marker:none;visibility:visible;display:inline;overflow:visible;enable-background:accumulate"
         sodipodi:type="star" />
    </g>
  </g>
</svg>
