<?xml version="1.0" encoding="UTF-8" standalone="no"?>
<!-- Created with Inkscape (http://www.inkscape.org/) -->

<svg
   xmlns:dc="http://purl.org/dc/elements/1.1/"
   xmlns:cc="http://creativecommons.org/ns#"
   xmlns:rdf="http://www.w3.org/1999/02/22-rdf-syntax-ns#"
   xmlns:svg="http://www.w3.org/2000/svg"
   xmlns="http://www.w3.org/2000/svg"
   xmlns:sodipodi="http://sodipodi.sourceforge.net/DTD/sodipodi-0.dtd"
   xmlns:inkscape="http://www.inkscape.org/namespaces/inkscape"
   width="744.09448819"
   height="1052.3622047"
   id="svg2"
   version="1.1"
   inkscape:version="0.48.1 "
   sodipodi:docname="livre-de-discriminacao.svg"
   inkscape:export-filename="C:\Users\PauloS\Pictures\territorio-livre-2.png"
   inkscape:export-xdpi="59"
   inkscape:export-ydpi="59">
  <defs
     id="defs4" />
  <sodipodi:namedview
     id="base"
     pagecolor="#ffffff"
     bordercolor="#666666"
     borderopacity="1.0"
     inkscape:pageopacity="0.0"
     inkscape:pageshadow="2"
     inkscape:zoom="0.57562198"
     inkscape:cx="472.69293"
     inkscape:cy="466.60707"
     inkscape:document-units="px"
     inkscape:current-layer="layer1"
     showgrid="false"
     inkscape:window-width="1920"
     inkscape:window-height="1017"
     inkscape:window-x="-4"
     inkscape:window-y="-4"
     inkscape:window-maximized="1" />
  <metadata
     id="metadata7">
    <rdf:RDF>
      <cc:Work
         rdf:about="">
        <dc:format>image/svg+xml</dc:format>
        <dc:type
           rdf:resource="http://purl.org/dc/dcmitype/StillImage" />
        <dc:title></dc:title>
      </cc:Work>
    </rdf:RDF>
  </metadata>
  <g
     inkscape:label="Layer 1"
     inkscape:groupmode="layer"
     id="layer1">
    <text
       xml:space="preserve"
       style="font-size:63.7259903px;font-style:normal;font-variant:normal;font-weight:bold;font-stretch:normal;text-indent:0;text-align:center;text-decoration:none;line-height:125%;letter-spacing:0px;word-spacing:0px;text-transform:none;direction:ltr;block-progression:tb;writing-mode:lr-tb;text-anchor:middle;baseline-shift:baseline;color:#000000;fill:#000000;fill-opacity:1;fill-rule:nonzero;stroke:none;marker:none;visibility:visible;display:inline;overflow:visible;enable-background:accumulate;font-family:Aharoni;-inkscape-font-specification:Aharoni Bold"
       x="383.07535"
       y="158.8261"
       id="text3860"
       sodipodi:linespacing="125%"><tspan
         sodipodi:role="line"
         id="tspan3862"
         x="383.07535"
         y="158.8261">TERRITORIO</tspan></text>
    <text
       sodipodi:linespacing="125%"
       id="text3864"
       y="652.8631"
       x="381.08392"
       style="font-size:63.7259903px;font-style:normal;font-variant:normal;font-weight:bold;font-stretch:normal;text-indent:0;text-align:center;text-decoration:none;line-height:125%;letter-spacing:0px;word-spacing:0px;text-transform:none;direction:ltr;block-progression:tb;writing-mode:lr-tb;text-anchor:middle;baseline-shift:baseline;color:#000000;fill:#000000;fill-opacity:1;fill-rule:nonzero;stroke:none;marker:none;visibility:visible;display:inline;overflow:visible;enable-background:accumulate;font-family:Aharoni;-inkscape-font-specification:Aharoni Bold"
       xml:space="preserve"><tspan
         y="652.8631"
         x="381.08392"
         id="tspan3866"
         sodipodi:role="line">LIVRE DE</tspan></text>
    <text
       xml:space="preserve"
       style="font-size:68.67036438px;font-style:normal;font-variant:normal;font-weight:bold;font-stretch:normal;text-align:center;line-height:125%;letter-spacing:0px;word-spacing:0px;writing-mode:lr-tb;text-anchor:middle;fill:#000000;fill-opacity:1;stroke:none;font-family:Aharoni;-inkscape-font-specification:Aharoni Bold"
       x="379.60443"
       y="725.2467"
       id="text3878"
       sodipodi:linespacing="125%"><tspan
         sodipodi:role="line"
         id="tspan3880"
         x="389.12708"
         y="725.2467">DISCRIMINACAO </tspan></text>
    <path
       sodipodi:type="star"
       style="color:#000000;fill:#000000;fill-opacity:1;fill-rule:nonzero;stroke:none;stroke-width:39.29999924;marker:none;visibility:visible;display:inline;overflow:visible;enable-background:accumulate"
       id="path3908"
       sodipodi:sides="3"
       sodipodi:cx="56.435726"
       sodipodi:cy="173.57729"
       sodipodi:r1="18.427994"
       sodipodi:r2="0.87329668"
       sodipodi:arg1="1.5707963"
       sodipodi:arg2="2.6179939"
       inkscape:flatsided="true"
       inkscape:rounded="0"
       inkscape:randomized="0"
       d="m 56.435727,192.00528 -15.959112,-27.64199 31.918222,0 z"
       transform="matrix(0.29258707,0,0,0.29258707,407.48948,57.758434)" />
    <g
       id="g3169"
       transform="translate(4.7468682,0)">
      <path
         style="color:#000000;fill:#000000;fill-opacity:1;fill-rule:nonzero;stroke:none;stroke-width:39.29999924;marker:none;visibility:visible;display:inline;overflow:visible;enable-background:accumulate"
         d="m 449.6641,242.41868 c -16.04472,0 -29.05942,13.01469 -29.05942,29.05942 0,13.56032 9.28948,24.92723 21.85269,28.12952 -16.8851,3.18135 -29.5908,17.96345 -29.5908,35.80121 l 0,58.84948 c 0,0.87835 0.0392,1.76122 0.0996,2.62365 -0.0582,0.52708 -0.0996,1.05101 -0.0996,1.59411 l 0,107.56968 c 0,7.93998 6.37387,14.31384 14.31384,14.31384 7.93998,0 14.34705,-6.37386 14.34705,-14.31384 l 0,-76.1855 c 2.48909,0.53386 5.08497,0.83027 7.73811,0.83027 2.66239,0 5.24139,-0.29214 7.73811,-0.83027 l 0,76.1855 c 0,7.93998 6.37387,14.31384 14.31384,14.31384 7.93998,0 14.34705,-6.37386 14.34705,-14.31384 l 0,-107.56968 c 0,-0.55429 -0.039,-1.08977 -0.0996,-1.62732 0.0595,-0.85557 0.0996,-1.71929 0.0996,-2.59044 l 0,-58.84948 c 0,-17.67307 -12.47411,-32.33816 -29.12584,-35.70157 12.71789,-3.09421 22.15159,-14.55909 22.15159,-28.22916 0,-16.04473 -12.9815,-29.05942 -29.02622,-29.05942 z"
         id="path3842"
         inkscape:connector-curvature="0" />
      <path
         inkscape:connector-curvature="0"
         id="path3806"
         d="m 298.02323,242.41868 c -16.04471,0 -29.05942,13.01469 -29.05942,29.05942 0,13.56032 9.28948,24.92723 21.85269,28.12952 -16.8851,3.18135 -29.5908,17.96345 -29.5908,35.80121 l 0,58.84948 c 0,0.87835 0.0392,1.76122 0.0996,2.62365 -0.0582,0.52708 -0.0996,1.05101 -0.0996,1.59411 l 0,107.56968 c 0,7.93998 6.37387,14.31384 14.31384,14.31384 7.93999,0 14.34705,-6.37386 14.34705,-14.31384 l 0,-76.1855 c 2.4891,0.53386 5.08498,0.83027 7.73811,0.83027 2.66239,0 5.2414,-0.29214 7.73811,-0.83027 l 0,76.1855 c 0,7.93998 6.37387,14.31384 14.31384,14.31384 7.93999,0 14.34705,-6.37386 14.34705,-14.31384 l 0,-107.56968 c 0,-0.55429 -0.039,-1.08977 -0.0996,-1.62732 0.0595,-0.85557 0.0996,-1.71929 0.0996,-2.59044 l 0,-58.84948 c 0,-17.67307 -12.47411,-32.33816 -29.12583,-35.70157 12.71788,-3.09421 22.15158,-14.55909 22.15158,-28.22916 0,-16.04473 -12.98149,-29.05942 -29.02622,-29.05942 z"
         style="color:#000000;fill:#000000;fill-opacity:1;fill-rule:nonzero;stroke:none;stroke-width:39.29999924;marker:none;visibility:visible;display:inline;overflow:visible;enable-background:accumulate" />
      <path
         inkscape:export-ydpi="59"
         inkscape:export-xdpi="59"
         inkscape:export-filename="C:\Users\PauloS\Pictures\tla-logo.png"
         inkscape:connector-curvature="0"
         id="path2985"
         d="m 524.04933,239.98286 c -80.93071,-80.93071 -212.658,-80.91168 -293.58871,0.019 -80.93071,80.93071 -80.93071,212.63897 0,293.56968 80.93071,80.93071 212.658,80.94974 293.58871,0.019 80.93071,-80.93071 80.93071,-212.67703 0,-293.60774 z m -36.49641,12.55872 -244.57164,244.57163 c -56.35453,-68.3457 -52.55869,-169.23597 11.398,-233.19267 63.95669,-63.95668 164.82793,-67.73349 233.17364,-11.37896 z m 23.93769,23.93769 c 56.35453,68.34571 52.57772,169.21695 -11.37896,233.17364 -63.9567,63.95669 -164.84697,67.75253 -233.19267,11.39799 L 511.49061,276.47927 z"
         style="font-size:medium;font-style:normal;font-variant:normal;font-weight:normal;font-stretch:normal;text-indent:0;text-align:start;text-decoration:none;line-height:normal;letter-spacing:normal;word-spacing:normal;text-transform:none;direction:ltr;block-progression:tb;writing-mode:lr-tb;text-anchor:start;baseline-shift:baseline;color:#000000;fill:#ff0000;fill-opacity:1;fill-rule:nonzero;stroke:none;stroke-width:39.29999924;marker:none;visibility:visible;display:inline;overflow:visible;enable-background:accumulate;font-family:Sans;-inkscape-font-specification:Sans" />
      <rect
         transform="matrix(0.62848984,-0.77781779,0.77781779,0.62848984,0,0)"
         ry="11.613074"
         y="435.76685"
         x="-62.181252"
         height="97.926453"
         width="24.481615"
         id="rect3844"
         style="color:#000000;fill:#000000;fill-opacity:1;fill-rule:nonzero;stroke:none;stroke-width:39.29999924;marker:none;visibility:visible;display:inline;overflow:visible;enable-background:accumulate" />
      <g
         transform="matrix(1.0907162,0,0,1.0907162,-26.671987,-74.448209)"
         id="g3958">
        <path
           style="color:#000000;fill:#000000;fill-opacity:1;fill-rule:nonzero;stroke:none;stroke-width:39.29999924;marker:none;visibility:visible;display:inline;overflow:visible;enable-background:accumulate"
           d="m 404.39694,283.21867 0,31.72035 c 0,9.56183 -7.69779,17.25961 -17.25962,17.25961 l -31.72034,0 c -9.56182,0 -17.25961,-7.69778 -17.25961,-17.25961 l 0,-11.21406 -11.06845,-0.47616 11.06845,-11.15273 0,-8.8774 c 0,-9.56182 7.69779,-17.2596 17.25961,-17.2596 l 31.72034,0 c 9.56183,0 17.25962,7.69778 17.25962,17.2596 z"
           id="rect3846"
           inkscape:connector-curvature="0"
           sodipodi:nodetypes="ssssscccssss" />
        <path
           style="color:#000000;fill:#ffffff;fill-opacity:1;fill-rule:nonzero;stroke:none;stroke-width:39.29999924;marker:none;visibility:visible;display:inline;overflow:visible;enable-background:accumulate"
           d="m 375.45942,283.00866 -3.67188,6.35987 c -6.2242,-0.97764 -12.68806,1.85138 -16.02688,7.63438 -4.33285,7.50471 -1.76269,17.09667 5.74203,21.42952 7.50471,4.33285 17.09667,1.76269 21.42952,-5.74202 3.33882,-5.783 2.58395,-12.77975 -1.37482,-17.68125 l 3.67188,-6.35987 -9.76985,-5.64063 z"
           id="path3920"
           inkscape:connector-curvature="0"
           inkscape:transform-center-y="-2.5105006" />
        <path
           style="fill:none;stroke:#ffffff;stroke-width:1px;stroke-linecap:butt;stroke-linejoin:miter;stroke-opacity:1"
           d="m 378.6272,289.01822 c 2.40498,-5.48039 6.6275,-6.87801 4.83584,-13.07459"
           id="path3925"
           inkscape:connector-curvature="0"
           sodipodi:nodetypes="cc" />
        <path
           sodipodi:type="star"
           style="color:#000000;fill:#ffffff;fill-opacity:1;fill-rule:nonzero;stroke:none;stroke-width:39.29999924;marker:none;visibility:visible;display:inline;overflow:visible;enable-background:accumulate"
           id="path3952"
           sodipodi:sides="10"
           sodipodi:cx="382.5675"
           sodipodi:cy="276.66"
           sodipodi:r1="8.4277086"
           sodipodi:r2="1.8237664"
           sodipodi:arg1="0.11460805"
           sodipodi:arg2="0.030864722"
           inkscape:flatsided="false"
           inkscape:rounded="0"
           inkscape:randomized="0"
           d="m 390.93993,277.62377 -6.54953,-0.90749 4.38405,5.64462 -4.76527,-4.58389 0.22895,7.14346 -1.16085,-6.5094 -4.0136,5.91376 2.88699,-5.94854 -6.72309,2.42519 5.83209,-3.11554 -6.86459,-1.98971 6.54953,0.90749 -4.38405,-5.64461 4.76527,4.58389 -0.22895,-7.14346 1.16085,6.50939 4.01359,-5.91375 -2.88698,5.94854 6.72308,-2.4252 -5.83208,3.11554 z"
           transform="translate(0.75280256,-0.88967575)" />
      </g>
    </g>
    <text
       xml:space="preserve"
       style="font-size:43.84647751px;font-style:normal;font-variant:normal;font-weight:normal;font-stretch:normal;text-align:center;line-height:125%;letter-spacing:0px;word-spacing:0px;text-anchor:middle;fill:#000000;fill-opacity:1;stroke:none;font-family:Arial;-inkscape-font-specification:Arial"
       x="382.1196"
       y="88.621971"
       id="text3954"
       sodipodi:linespacing="125%"><tspan
         sodipodi:role="line"
         id="tspan3956"
         x="382.1196"
         y="88.621971">este evento é</tspan></text>
    <text
       xml:space="preserve"
       style="font-size:26.42876434px;font-style:normal;font-variant:normal;font-weight:normal;font-stretch:normal;text-align:center;line-height:125%;letter-spacing:0px;word-spacing:0px;text-anchor:middle;fill:#000000;fill-opacity:1;stroke:none;font-family:Arial;-inkscape-font-specification:Arial"
       x="381.83408"
       y="846.92969"
       id="text3015"
       sodipodi:linespacing="125%"><tspan
         sodipodi:role="line"
         id="tspan3017"
         x="381.83408"
         y="846.92969"> http://experienciapositiva.com.br</tspan></text>
    <g
       transform="matrix(0.27208043,0,0,0.27208043,216.60004,871.83992)"
       id="g3900"
       inkscape:export-filename="C:\Users\PauloS\Pictures\xp.png"
       inkscape:export-xdpi="59"
       inkscape:export-ydpi="59">
      <rect
         rx="31.392366"
         transform="matrix(0.70710678,-0.70710678,0.70710678,0.70710678,0,0)"
         ry="31.392366"
         y="172.54649"
         x="-165.52605"
         height="324.30365"
         width="324.30365"
         id="rect3876"
         style="color:#000000;fill:#ffff00;fill-opacity:1;fill-rule:nonzero;stroke:#ffffff;stroke-width:6.61988926;marker:none;visibility:visible;display:inline;overflow:visible;enable-background:accumulate" />
      <rect
         style="color:#000000;fill:#ffff00;fill-opacity:1;fill-rule:nonzero;stroke:#000000;stroke-width:5.97997522;marker:none;visibility:visible;display:inline;overflow:visible;enable-background:accumulate"
         id="rect3878"
         width="292.95471"
         height="292.95471"
         x="-149.85158"
         y="188.22096"
         ry="14.400979"
         transform="matrix(0.70710678,-0.70710678,0.70710678,0.70710678,0,0)" />
      <text
         transform="matrix(0,-1,1,0,0,0)"
         xml:space="preserve"
         style="font-size:182.37536621px;font-style:normal;font-variant:normal;font-weight:normal;font-stretch:normal;text-align:center;line-height:125%;letter-spacing:0px;word-spacing:0px;text-anchor:middle;fill:#000000;fill-opacity:1;stroke:none;font-family:Arial;-inkscape-font-specification:Arial"
         x="-235.87871"
         y="213.18228"
         id="text3880"
         sodipodi:linespacing="125%"><tspan
           sodipodi:role="line"
           id="tspan3882"
           x="-235.87871"
           y="213.18228">+</tspan></text>
      <text
         sodipodi:linespacing="125%"
         id="text3884"
         y="279.6955"
         x="272.19519"
         style="font-size:121.32627869px;font-style:normal;font-variant:normal;font-weight:900;font-stretch:normal;text-align:center;line-height:125%;letter-spacing:0px;word-spacing:0px;writing-mode:lr-tb;text-anchor:middle;fill:#000000;fill-opacity:1;stroke:none;font-family:Arial Black;-inkscape-font-specification:'Arial Black, Heavy'"
         xml:space="preserve"><tspan
           y="279.6955"
           x="272.19519"
           id="tspan3886"
           sodipodi:role="line">XP</tspan></text>
    </g>
    <path
       inkscape:connector-curvature="0"
       id="path4066"
       d="m 398.23633,936.88168 0,-60.47609 60.47609,0 60.47608,0 0,60.47609 0,60.47612 -60.47608,0 -60.47609,0 0,-60.47612 z m 35.95876,35.95872 0,-11.44142 -11.44143,0 -11.44141,0 0,11.44142 0,11.4415 11.44141,0 11.44143,0 0,-11.4415 z m -19.61387,0 0,-8.17242 8.17244,0 8.17245,0 0,8.17242 0,8.1725 -8.17245,0 -8.17244,0 0,-8.1725 z m 13.07591,0 0,-4.90342 -4.90347,0 -4.90346,0 0,4.90342 0,4.9035 4.90346,0 4.90347,0 0,-4.9035 z m 19.61387,9.807 0,-1.6345 -1.63449,0 -1.63449,0 0,-1.6345 0,-1.6345 1.63449,0 1.63449,0 0,-1.6345 0,-1.6345 -3.26898,0 -3.26898,0 0,-1.6345 0,-1.6344 4.90347,0 4.90346,0 0,1.6344 0,1.6345 1.63449,0 1.63449,0 0,1.6345 0,1.6345 -1.63449,0 -1.63449,0 0,3.269 0,3.269 1.63449,0 1.63449,0 0,-1.6345 0,-1.6345 1.63449,0 1.63449,0 0,1.6345 0,1.6345 3.26897,0 3.26898,0 0,-3.269 0,-3.269 3.26898,0 3.26898,0 0,1.6345 0,1.6345 -1.63449,0 -1.63449,0 0,1.6345 0,1.6345 1.63449,0 1.63449,0 0,-1.6345 0,-1.6345 1.63448,0 1.63449,0 0,1.6345 0,1.6345 1.63449,0 1.63449,0 0,-1.6345 0,-1.6345 1.63449,0 1.63449,0 0,1.6345 0,1.6345 9.80693,0 9.80693,0 0,-1.6345 0,-1.6345 1.63449,0 1.63449,0 0,-3.269 0,-3.269 1.63449,0 1.63449,0 0,-1.6345 0,-1.6344 -3.26898,0 -3.26898,0 0,-1.63452 0,-1.6345 3.26898,0 3.26898,0 0,-1.6345 0,-1.6345 -3.26898,0 -3.26898,0 0,-1.6345 0,-1.6345 3.26898,0 3.26898,0 0,-3.2689 0,-3.269 -1.63449,0 -1.63449,0 0,-1.6345 0,-1.6345 -1.63449,0 -1.63449,0 0,-4.9035 0,-4.9034 1.63449,0 1.63449,0 0,-1.6345 0,-1.6345 -1.63449,0 -1.63449,0 0,-4.9035 0,-4.90345 1.63449,0 1.63449,0 0,-1.63449 0,-1.63449 -1.63449,0 -1.63449,0 0,1.63449 0,1.63449 -3.26897,0 -3.26898,0 0,-4.90347 0,-4.90346 1.63449,0 1.63449,0 0,-1.63449 0,-1.63449 -1.63449,0 -1.63449,0 0,1.63449 0,1.63449 -1.63449,0 -1.63449,0 0,-1.63449 0,-1.63449 -1.63449,0 -1.63449,0 0,1.63449 0,1.63449 -1.63449,0 -1.63448,0 0,-1.63449 0,-1.63449 -1.63449,0 -1.63449,0 0,1.63449 0,1.63449 -1.63449,0 -1.63449,0 0,-1.63449 0,-1.63449 -1.63449,0 -1.63449,0 0,3.26898 0,3.26898 -8.17244,0 -8.17244,0 0,-1.63449 0,-1.63449 -3.26898,0 -3.26898,0 0,-3.26898 0,-3.26898 1.63449,0 1.63449,0 0,-1.63449 0,-1.63448 1.63449,0 1.63449,0 0,3.26897 0,3.26898 1.63449,0 1.63448,0 0,-3.26898 0,-3.26897 1.63449,0 1.63449,0 0,3.26897 0,3.26898 1.63449,0 1.63449,0 0,1.63449 0,1.63449 1.63449,0 1.63449,0 0,-1.63449 0,-1.63449 -1.63449,0 -1.63449,0 0,-3.26898 0,-3.26897 1.63449,0 1.63449,0 0,1.63448 0,1.63449 1.63448,0 1.63449,0 0,-1.63449 0,-1.63448 -1.63449,0 -1.63448,0 0,-1.63449 0,-1.63449 3.26897,0 3.26898,0 0,3.26898 0,3.26897 1.63449,0 1.63449,0 0,-4.90346 0,-4.90347 -4.90347,0 -4.90346,0 0,-1.63449 0,-1.63449 1.63448,0 1.63449,0 0,-3.26897 0,-3.26898 1.63449,0 1.63449,0 0,1.63449 0,1.63449 1.63449,0 1.63449,0 0,-3.26898 0,-3.26898 -3.26898,0 -3.26898,0 0,1.63449 0,1.63449 -1.63449,0 -1.63448,0 0,3.26898 0,3.26897 -1.63449,0 -1.63449,0 0,1.63449 0,1.63449 -1.63449,0 -1.63449,0 0,-1.63449 0,-1.63449 -1.63449,0 -1.63449,0 0,1.63449 0,1.63449 1.63449,0 1.63449,0 0,1.63449 0,1.63449 -3.26898,0 -3.26897,0 0,-3.26898 0,-3.26898 -1.63449,0 -1.63449,0 0,-1.63448 0,-1.63449 1.63449,0 1.63449,0 0,-1.63449 0,-1.63449 1.63449,0 1.63448,0 0,1.63449 0,1.63449 1.63449,0 1.63449,0 0,-1.63449 0,-1.63449 1.63449,0 1.63449,0 0,-1.63449 0,-1.63449 -1.63449,0 -1.63449,0 0,1.63449 0,1.63449 -1.63449,0 -1.63449,0 0,-1.63449 0,-1.63449 -1.63448,0 -1.63449,0 0,1.63449 0,1.63449 -1.63449,0 -1.63449,0 0,-1.63449 0,-1.63449 -1.63449,0 -1.63449,0 0,1.63449 0,1.63449 1.63449,0 1.63449,0 0,1.63449 0,1.63449 -1.63449,0 -1.63449,0 0,3.26897 0,3.26898 1.63449,0 1.63449,0 0,1.63449 0,1.63449 -3.26898,0 -3.26897,0 0,1.63449 0,1.63449 -1.63449,0 -1.63449,0 0,-3.26898 0,-3.26898 1.63449,0 1.63449,0 0,-1.63449 0,-1.63449 -4.90347,0 -4.90347,0 0,1.63449 0,1.63449 1.63449,0 1.63449,0 0,1.63449 0,1.63449 -1.63449,0 -1.63449,0 0,3.26898 0,3.26897 1.63449,0 1.63449,0 0,1.63449 0,1.63449 -4.90347,0 -4.90346,0 0,1.63449 0,1.63449 -1.63449,0 -1.63449,0 0,-1.63449 0,-1.63449 -8.17244,0 -8.17244,0 0,3.26898 0,3.26898 1.63448,0 1.63449,0 0,-1.63449 0,-1.63449 3.26898,0 3.26897,0 0,1.63449 0,1.63449 -1.63448,0 -1.63449,0 0,3.26897 0,3.26898 -1.63449,0 -1.63449,0 0,-1.63449 0,-1.63449 -1.63449,0 -1.63448,0 0,1.63449 0,1.63449 1.63448,0 1.63449,0 0,1.63445 0,1.6345 -1.63449,0 -1.63448,0 0,3.269 0,3.269 1.63448,0 1.63449,0 0,3.269 0,3.2689 -1.63449,0 -1.63448,0 0,6.538 0,6.538 1.63448,0 1.63449,0 0,-6.538 0,-6.538 4.90347,0 4.90347,0 0,1.6345 0,1.6345 -1.6345,0 -1.63449,0 0,1.6345 0,1.6345 1.63449,0 1.6345,0 0,1.6345 0,1.6345 -3.26899,0 -3.26897,0 0,1.6345 0,1.6345 4.90346,0 4.90347,0 0,-3.269 0,-3.269 -1.63449,0 -1.63448,0 0,-1.6345 0,-1.6345 1.63448,0 1.63449,0 0,-1.6345 0,-1.6345 4.90347,0 4.90346,0 0,1.6345 0,1.6345 1.63449,0 1.63449,0 0,-1.6345 0,-1.6345 1.63449,0 1.63449,0 0,6.538 0,6.538 1.63449,0 1.63449,0 0,-6.538 0,-6.538 1.63448,0 1.63449,0 0,1.6345 0,1.6345 1.63449,0 1.63449,0 0,1.6345 0,1.6345 -1.63449,0 -1.63449,0 0,3.269 0,3.269 1.63449,0 1.63449,0 0,-1.6345 0,-1.6345 1.63449,0 1.63449,0 0,1.6345 0,1.6345 3.26897,0 3.26898,0 0,1.6344 0,1.6345 -1.63449,0 -1.63449,0 0,1.6345 0,1.6345 -1.63448,0 -1.63449,0 0,1.6345 0,1.6345 1.63449,0 1.63448,0 0,-1.6345 0,-1.6345 1.63449,0 1.63449,0 0,1.6345 0,1.6345 1.63449,0 1.63449,0 0,1.6345 0,1.63452 1.63449,0 1.63449,0 0,-1.63452 0,-1.6345 -1.63449,0 -1.63449,0 0,-1.6345 0,-1.6345 -1.63449,0 -1.63449,0 0,-1.6345 0,-1.6345 3.26898,0 3.26898,0 0,1.6345 0,1.6345 1.63448,0 1.63449,0 0,1.6345 0,1.6345 1.63449,0 1.63449,0 0,1.6345 0,1.63452 -1.63449,0 -1.63449,0 0,1.6344 0,1.6345 1.63449,0 1.63449,0 0,3.269 0,3.269 -1.63449,0 -1.63449,0 0,-1.6345 0,-1.6345 -1.63449,0 -1.63448,0 0,-1.6345 0,-1.6345 -4.90347,0 -4.90347,0 0,-1.6345 0,-1.6344 -4.90346,0 -4.90347,0 0,-3.26902 0,-3.269 1.63449,0 1.63449,0 0,-1.6345 0,-1.6345 -3.26898,0 -3.26897,0 0,3.269 0,3.269 -4.90347,0 -4.90347,0 0,8.17242 0,8.1725 4.90347,0 4.90347,0 0,-1.6345 z m 9.80693,-3.269 0,-1.6345 1.63449,0 1.63448,0 0,1.6345 0,1.6345 -1.63448,0 -1.63449,0 0,-1.6345 z m 26.15182,0 0,-1.6345 -1.63449,0 -1.63449,0 0,-1.6345 0,-1.6345 -1.63449,0 -1.63449,0 0,-1.6345 0,-1.6344 4.90347,0 4.90346,0 0,1.6344 0,1.6345 -1.63449,0 -1.63448,0 0,1.6345 0,1.6345 1.63448,0 1.63449,0 0,1.6345 0,1.6345 -1.63449,0 -1.63448,0 0,-1.6345 z m 6.53795,0 0,-1.6345 1.63449,0 1.63449,0 0,1.6345 0,1.6345 -1.63449,0 -1.63449,0 0,-1.6345 z m 6.53796,0 0,-1.6345 1.63448,0 1.63449,0 0,1.6345 0,1.6345 -1.63449,0 -1.63448,0 0,-1.6345 z m -6.53796,-6.538 0,-1.6344 1.63449,0 1.63449,0 0,1.6344 0,1.6345 -1.63449,0 -1.63449,0 0,-1.6345 z m 6.53796,0 0,-1.6344 1.63448,0 1.63449,0 0,1.6344 0,1.6345 -1.63449,0 -1.63448,0 0,-1.6345 z m -16.34489,-9.80692 0,-4.9034 4.90346,0 4.90347,0 0,4.9034 0,4.9035 -4.90347,0 -4.90346,0 0,-4.9035 z m 6.53795,0 0,-1.6345 -1.63449,0 -1.63448,0 0,1.6345 0,1.6345 1.63448,0 1.63449,0 0,-1.6345 z m 9.80694,3.269 0,-1.6345 1.63448,0 1.63449,0 0,1.6345 0,1.6345 -1.63449,0 -1.63448,0 0,-1.6345 z m -22.88285,-6.538 0,-1.6344 -1.63449,0 -1.63448,0 0,-1.6345 0,-1.6345 -1.63449,0 -1.63449,0 0,1.6345 0,1.6345 -1.63449,0 -1.63449,0 0,-1.6345 0,-1.6345 -3.26898,0 -3.26897,0 0,-1.6345 0,-1.6345 4.90346,0 4.90347,0 0,-3.269 0,-3.269 -1.63449,0 -1.63449,0 0,1.6345 0,1.6345 -1.63449,0 -1.63449,0 0,-1.6345 0,-1.6345 -4.90346,0 -4.90347,0 0,-3.2689 0,-3.269 1.63449,0 1.63449,0 0,-1.6345 0,-1.6345 -8.17244,0 -8.17245,0 0,1.6345 0,1.6345 3.26898,0 3.26898,0 0,1.6345 0,1.6345 -3.26898,0 -3.26898,0 0,-1.6345 0,-1.6345 -1.63449,0 -1.63448,0 0,1.6345 0,1.6345 -3.26898,0 -3.26898,0 0,-1.6345 0,-1.6345 -3.26897,0 -3.26899,0 0,1.6345 0,1.6345 -1.63448,0 -1.63449,0 0,-3.269 0,-3.269 -1.63449,0 -1.63449,0 0,-1.6345 0,-1.6345 1.63449,0 1.63449,0 0,-1.6345 0,-1.63445 3.26897,0 3.26899,0 0,-4.90347 0,-4.90346 1.63448,0 1.63449,0 0,1.63449 0,1.63449 1.63449,0 1.63449,0 0,-1.63449 0,-1.63449 1.63449,0 1.63449,0 0,1.63449 0,1.63449 -1.63449,0 -1.63449,0 0,1.63448 0,1.63449 1.63449,0 1.63449,0 0,1.63449 0,1.63449 3.26897,0 3.26898,0 0,-3.26898 0,-3.26897 -1.63449,0 -1.63449,0 0,-1.63449 0,-1.63449 3.26898,0 3.26898,0 0,-1.63449 0,-1.63449 1.63449,0 1.63449,0 0,1.63449 0,1.63449 1.63448,0 1.63449,0 0,1.63449 0,1.63449 1.63449,0 1.63449,0 0,1.63448 0,1.63449 -1.63449,0 -1.63449,0 0,3.26898 0,3.26895 1.63449,0 1.63449,0 0,-1.6345 0,-1.63445 1.63449,0 1.63449,0 0,-1.63449 0,-1.63449 1.63449,0 1.63448,0 0,1.63449 0,1.63449 3.26898,0 3.26898,0 0,-1.63449 0,-1.63449 3.26898,0 3.26897,0 0,-1.63449 0,-1.63448 1.63449,0 1.63449,0 0,1.63448 0,1.63449 1.63449,0 1.63449,0 0,1.63449 0,1.63449 1.63449,0 1.63449,0 0,-1.63449 0,-1.63449 1.63448,0 1.63449,0 0,1.63449 0,1.63449 3.26898,0 3.26898,0 0,1.63445 0,1.6345 1.63449,0 1.63449,0 0,3.269 0,3.269 1.63448,0 1.63449,0 0,1.6345 0,1.6345 -1.63449,0 -1.63448,0 0,1.6345 0,1.6344 -3.26898,0 -3.26898,0 0,1.6345 0,1.6345 1.63449,0 1.63449,0 0,1.6345 0,1.6345 3.26898,0 3.26897,0 0,1.6345 0,1.6345 -1.63449,0 -1.63448,0 0,1.6345 0,1.6345 -1.63449,0 -1.63449,0 0,-3.269 0,-3.269 -1.63449,0 -1.63449,0 0,-1.6345 0,-1.6345 -1.63449,0 -1.63449,0 0,3.269 0,3.269 -3.26897,0 -3.26898,0 0,-3.269 0,-3.269 3.26898,0 3.26897,0 0,-1.6345 0,-1.6345 -4.90346,0 -4.90347,0 0,-1.6344 0,-1.6345 3.26898,0 3.26898,0 0,-3.269 0,-3.269 -1.63449,0 -1.63449,0 0,1.6345 0,1.6345 -3.26898,0 -3.26898,0 0,4.9035 0,4.9034 1.63449,0 1.63449,0 0,6.538 0,6.5379 -1.63449,0 -1.63449,0 0,-1.6345 z m 0,-6.5379 0,-1.6345 -1.63449,0 -1.63448,0 0,1.6345 0,1.6345 1.63448,0 1.63449,0 0,-1.6345 z m -3.26897,-9.8069 0,-1.6345 -1.63449,0 -1.63449,0 0,-3.269 0,-3.269 1.63449,0 1.63449,0 0,1.6345 0,1.6345 1.63448,0 1.63449,0 0,-1.6345 0,-1.6345 3.26898,0 3.26898,0 0,-1.6345 0,-1.6345 -4.90347,0 -4.90346,0 0,-1.6345 0,-1.63445 -1.63449,0 -1.63449,0 0,1.63445 0,1.6345 -1.63449,0 -1.63449,0 0,1.6345 0,1.6345 -1.63449,0 -1.63449,0 0,1.6345 0,1.6345 -1.63448,0 -1.63449,0 0,1.6345 0,1.6345 1.63449,0 1.63448,0 0,-1.6345 0,-1.6345 1.63449,0 1.63449,0 0,1.6345 0,1.6345 1.63449,0 1.63449,0 0,1.6345 0,1.6344 1.63449,0 1.63449,0 0,-1.6344 z m 19.61386,-3.269 0,-1.6345 -1.63449,0 -1.63449,0 0,1.6345 0,1.6345 1.63449,0 1.63449,0 0,-1.6345 z m -55.57261,-3.269 0,-1.6345 -3.26898,0 -3.26898,0 0,-1.6345 0,-1.6345 3.26898,0 3.26898,0 0,-1.6345 0,-1.63445 -3.26898,0 -3.26898,0 0,1.63445 0,1.6345 -1.63449,0 -1.63448,0 0,1.6345 0,1.6345 1.63448,0 1.63449,0 0,1.6345 0,1.6345 3.26898,0 3.26898,0 0,-1.6345 z m -13.07592,-3.269 0,-1.6345 -1.63448,0 -1.63449,0 0,1.6345 0,1.6345 1.63449,0 1.63448,0 0,-1.6345 z m 71.91751,0 0,-1.6345 -4.90347,0 -4.90346,0 0,1.6345 0,1.6345 4.90346,0 4.90347,0 0,-1.6345 z m -45.76568,-3.269 0,-1.63445 -3.26898,0 -3.26898,0 0,1.63445 0,1.6345 3.26898,0 3.26898,0 0,-1.6345 z m 13.0759,0 0,-1.63445 -1.63448,0 -1.63449,0 0,1.63445 0,1.6345 1.63449,0 1.63448,0 0,-1.6345 z m 16.34489,-3.26894 0,-1.63449 -1.63449,0 -1.63449,0 0,1.63449 0,1.63449 1.63449,0 1.63449,0 0,-1.63449 z m -29.42079,-4.90346 0,-3.26898 -1.63449,0 -1.63449,0 0,3.26898 0,3.26897 1.63449,0 1.63449,0 0,-3.26897 z m 32.68977,-1.63449 0,-1.63449 1.63449,0 1.63449,0 0,1.63449 0,1.63449 -1.63449,0 -1.63449,0 0,-1.63449 z m -39.22773,-9.80694 0,-1.63448 1.63449,0 1.63449,0 0,1.63448 0,1.63449 -1.63449,0 -1.63449,0 0,-1.63449 z m 6.53796,0 0,-1.63448 1.63448,0 1.63449,0 0,1.63448 0,1.63449 -1.63449,0 -1.63448,0 0,-1.63449 z m 16.34488,-3.26897 0,-1.63449 1.63449,0 1.63449,0 0,1.63449 0,1.63449 -1.63449,0 -1.63449,0 0,-1.63449 z m -22.88284,53.9381 0,-3.2689 -1.63449,0 -1.63449,0 0,3.2689 0,3.269 1.63449,0 1.63449,0 0,-3.269 z m -6.53795,-4.9034 0,-1.6345 3.26897,0 3.26898,0 0,-1.6345 0,-1.6345 -3.26898,0 -3.26897,0 0,-1.6345 0,-1.6345 -1.63449,0 -1.63449,0 0,1.6345 0,1.6345 1.63449,0 1.63449,0 0,1.6345 0,1.6345 -1.63449,0 -1.63449,0 0,1.6345 0,1.6345 1.63449,0 1.63449,0 0,-1.6345 z m 71.9175,-9.807 0,-1.6345 -1.63449,0 -1.63449,0 0,1.6345 0,1.6345 1.63449,0 1.63449,0 0,-1.6345 z m 0,-13.0759 0,-1.6345 -1.63449,0 -1.63449,0 0,1.6345 0,1.6345 1.63449,0 1.63449,0 0,-1.6345 z m 0,-13.07589 0,-1.63449 -1.63449,0 -1.63449,0 0,-1.63449 0,-1.63449 -1.63449,0 -1.63449,0 0,1.63449 0,1.63449 1.63449,0 1.63449,0 0,1.63449 0,1.63449 1.63449,0 1.63449,0 0,-1.63449 z m -71.9175,-19.61387 0,-11.44142 -11.44143,0 -11.44141,0 0,11.44142 0,11.44142 11.44141,0 11.44143,0 0,-11.44142 z m -19.61387,0 0,-8.17244 8.17244,0 8.17245,0 0,8.17244 0,8.17245 -8.17245,0 -8.17244,0 0,-8.17245 z m 13.07591,0 0,-4.90346 -4.90347,0 -4.90346,0 0,4.90346 0,4.90347 4.90346,0 4.90347,0 0,-4.90347 z m 78.45546,0 0,-11.44142 -11.44142,0 -11.44142,0 0,11.44142 0,11.44142 11.44142,0 11.44142,0 0,-11.44142 z m -19.61387,0 0,-8.17244 8.17245,0 8.17244,0 0,8.17244 0,8.17245 -8.17244,0 -8.17245,0 0,-8.17245 z m 13.07591,0 0,-4.90346 -4.90346,0 -4.90347,0 0,4.90346 0,4.90347 4.90347,0 4.90346,0 0,-4.90347 z m -58.84159,-6.53795 0,-1.63449 -1.63449,0 -1.63449,0 0,1.63449 0,1.63449 1.63449,0 1.63449,0 0,-1.63449 z m 6.53796,-1.63449 0,-3.26898 -1.63449,0 -1.63449,0 0,3.26898 0,3.26898 1.63449,0 1.63449,0 0,-3.26898 z"
       style="fill:#e6e6e6" />
    <path
       inkscape:connector-curvature="0"
       id="path4064"
       d="m 411.31225,972.8404 0,-11.44142 11.44141,0 11.44143,0 0,11.44142 0,11.4415 -11.44143,0 -11.44141,0 0,-11.4415 z m 19.61386,0 0,-8.17242 -8.17245,0 -8.17244,0 0,8.17242 0,8.1725 8.17244,0 8.17245,0 0,-8.1725 z m -13.07591,0 0,-4.90342 4.90346,0 4.90347,0 0,4.90342 0,4.9035 -4.90347,0 -4.90346,0 0,-4.9035 z m 19.61386,3.269 0,-8.17242 4.90347,0 4.90347,0 0,-3.269 0,-3.269 3.26897,0 3.26898,0 0,1.6345 0,1.6345 -1.63449,0 -1.63449,0 0,3.269 0,3.26902 4.90347,0 4.90346,0 0,1.6344 0,1.6345 4.90347,0 4.90347,0 0,1.6345 0,1.6345 1.63448,0 1.63449,0 0,1.6345 0,1.6345 1.63449,0 1.63449,0 0,-3.269 0,-3.269 -1.63449,0 -1.63449,0 0,-1.6345 0,-1.6344 1.63449,0 1.63449,0 0,-1.63452 0,-1.6345 -1.63449,0 -1.63449,0 0,-1.6345 0,-1.6345 -1.63449,0 -1.63448,0 0,-1.6345 0,-1.6345 -3.26898,0 -3.26898,0 0,1.6345 0,1.6345 1.63449,0 1.63449,0 0,1.6345 0,1.6345 1.63449,0 1.63449,0 0,1.6345 0,1.63452 -1.63449,0 -1.63449,0 0,-1.63452 0,-1.6345 -1.63449,0 -1.63449,0 0,-1.6345 0,-1.6345 -1.63449,0 -1.63449,0 0,1.6345 0,1.6345 -1.63448,0 -1.63449,0 0,-1.6345 0,-1.6345 1.63449,0 1.63448,0 0,-1.6345 0,-1.6345 1.63449,0 1.63449,0 0,-1.6345 0,-1.6344 -3.26898,0 -3.26897,0 0,-1.6345 0,-1.6345 -1.63449,0 -1.63449,0 0,1.6345 0,1.6345 -1.63449,0 -1.63449,0 0,-3.269 0,-3.269 1.63449,0 1.63449,0 0,-1.6345 0,-1.6345 -1.63449,0 -1.63449,0 0,-1.6345 0,-1.6345 -1.63449,0 -1.63448,0 0,6.538 0,6.538 -1.63449,0 -1.63449,0 0,-6.538 0,-6.538 -1.63449,0 -1.63449,0 0,1.6345 0,1.6345 -1.63449,0 -1.63449,0 0,-1.6345 0,-1.6345 -4.90346,0 -4.90347,0 0,1.6345 0,1.6345 -1.63449,0 -1.63448,0 0,1.6345 0,1.6345 1.63448,0 1.63449,0 0,3.269 0,3.269 -4.90347,0 -4.90346,0 0,-1.6345 0,-1.6345 3.26897,0 3.26899,0 0,-1.6345 0,-1.6345 -1.6345,0 -1.63449,0 0,-1.6345 0,-1.6345 1.63449,0 1.6345,0 0,-1.6345 0,-1.6345 -4.90347,0 -4.90347,0 0,6.538 0,6.538 -1.63449,0 -1.63448,0 0,-6.538 0,-6.538 1.63448,0 1.63449,0 0,-3.2689 0,-3.269 -1.63449,0 -1.63448,0 0,-3.269 0,-3.269 1.63448,0 1.63449,0 0,-1.6345 0,-1.63445 -1.63449,0 -1.63448,0 0,-1.63449 0,-1.63449 1.63448,0 1.63449,0 0,1.63449 0,1.63449 1.63449,0 1.63449,0 0,-3.26898 0,-3.26897 1.63449,0 1.63448,0 0,-1.63449 0,-1.63449 -3.26897,0 -3.26898,0 0,1.63449 0,1.63449 -1.63449,0 -1.63448,0 0,-3.26898 0,-3.26898 8.17244,0 8.17244,0 0,1.63449 0,1.63449 1.63449,0 1.63449,0 0,-1.63449 0,-1.63449 4.90346,0 4.90347,0 0,-1.63449 0,-1.63449 -1.63449,0 -1.63449,0 0,-3.26897 0,-3.26898 1.63449,0 1.63449,0 0,-1.63449 0,-1.63449 -1.63449,0 -1.63449,0 0,-1.63449 0,-1.63449 4.90347,0 4.90347,0 0,1.63449 0,1.63449 -1.63449,0 -1.63449,0 0,3.26898 0,3.26898 1.63449,0 1.63449,0 0,-1.63449 0,-1.63449 3.26897,0 3.26898,0 0,-1.63449 0,-1.63449 -1.63449,0 -1.63449,0 0,-3.26898 0,-3.26897 1.63449,0 1.63449,0 0,-1.63449 0,-1.63449 -1.63449,0 -1.63449,0 0,-1.63449 0,-1.63449 1.63449,0 1.63449,0 0,1.63449 0,1.63449 1.63449,0 1.63449,0 0,-1.63449 0,-1.63449 1.63449,0 1.63448,0 0,1.63449 0,1.63449 1.63449,0 1.63449,0 0,-1.63449 0,-1.63449 1.63449,0 1.63449,0 0,1.63449 0,1.63449 -1.63449,0 -1.63449,0 0,1.63449 0,1.63449 -1.63449,0 -1.63449,0 0,-1.63449 0,-1.63449 -1.63448,0 -1.63449,0 0,1.63449 0,1.63449 -1.63449,0 -1.63449,0 0,1.63449 0,1.63448 1.63449,0 1.63449,0 0,3.26898 0,3.26898 3.26897,0 3.26898,0 0,-1.63449 0,-1.63449 -1.63449,0 -1.63449,0 0,-1.63449 0,-1.63449 1.63449,0 1.63449,0 0,1.63449 0,1.63449 1.63449,0 1.63449,0 0,-1.63449 0,-1.63449 1.63449,0 1.63449,0 0,-3.26897 0,-3.26898 1.63448,0 1.63449,0 0,-1.63449 0,-1.63449 3.26898,0 3.26898,0 0,3.26898 0,3.26898 -1.63449,0 -1.63449,0 0,-1.63449 0,-1.63449 -1.63449,0 -1.63449,0 0,3.26898 0,3.26897 -1.63449,0 -1.63448,0 0,1.63449 0,1.63449 4.90346,0 4.90347,0 0,4.90347 0,4.90346 -1.63449,0 -1.63449,0 0,-3.26897 0,-3.26898 -3.26898,0 -3.26897,0 0,1.63449 0,1.63449 1.63448,0 1.63449,0 0,1.63448 0,1.63449 -1.63449,0 -1.63448,0 0,-1.63449 0,-1.63448 -1.63449,0 -1.63449,0 0,3.26897 0,3.26898 1.63449,0 1.63449,0 0,1.63449 0,1.63449 -1.63449,0 -1.63449,0 0,-1.63449 0,-1.63449 -1.63449,0 -1.63449,0 0,-3.26898 0,-3.26897 -1.63449,0 -1.63449,0 0,3.26897 0,3.26898 -1.63448,0 -1.63449,0 0,-3.26898 0,-3.26897 -1.63449,0 -1.63449,0 0,1.63448 0,1.63449 -1.63449,0 -1.63449,0 0,3.26898 0,3.26898 3.26898,0 3.26898,0 0,1.63449 0,1.63449 8.17244,0 8.17244,0 0,-3.26898 0,-3.26898 1.63449,0 1.63449,0 0,1.63449 0,1.63449 1.63449,0 1.63449,0 0,-1.63449 0,-1.63449 1.63449,0 1.63449,0 0,1.63449 0,1.63449 1.63448,0 1.63449,0 0,-1.63449 0,-1.63449 1.63449,0 1.63449,0 0,1.63449 0,1.63449 1.63449,0 1.63449,0 0,-1.63449 0,-1.63449 1.63449,0 1.63449,0 0,1.63449 0,1.63449 -1.63449,0 -1.63449,0 0,4.90346 0,4.90347 3.26898,0 3.26897,0 0,-1.63449 0,-1.63449 1.63449,0 1.63449,0 0,1.63449 0,1.63449 -1.63449,0 -1.63449,0 0,4.90345 0,4.9035 1.63449,0 1.63449,0 0,1.6345 0,1.6345 -1.63449,0 -1.63449,0 0,4.9034 0,4.9035 1.63449,0 1.63449,0 0,1.6345 0,1.6345 1.63449,0 1.63449,0 0,3.269 0,3.2689 -3.26898,0 -3.26898,0 0,1.6345 0,1.6345 3.26898,0 3.26898,0 0,1.6345 0,1.6345 -3.26898,0 -3.26898,0 0,1.6345 0,1.63452 3.26898,0 3.26898,0 0,1.6344 0,1.6345 -1.63449,0 -1.63449,0 0,3.269 0,3.269 -1.63449,0 -1.63449,0 0,1.6345 0,1.6345 -9.80693,0 -9.80693,0 0,-1.6345 0,-1.6345 -1.63449,0 -1.63449,0 0,1.6345 0,1.6345 -1.63449,0 -1.63449,0 0,-1.6345 0,-1.6345 -1.63449,0 -1.63448,0 0,1.6345 0,1.6345 -1.63449,0 -1.63449,0 0,-1.6345 0,-1.6345 1.63449,0 1.63449,0 0,-1.6345 0,-1.6345 -3.26898,0 -3.26898,0 0,3.269 0,3.269 -3.26898,0 -3.26897,0 0,-1.6345 0,-1.6345 -1.63449,0 -1.63449,0 0,1.6345 0,1.6345 -1.63449,0 -1.63449,0 0,-3.269 0,-3.269 1.63449,0 1.63449,0 0,-1.6345 0,-1.6345 -1.63449,0 -1.63449,0 0,-1.6345 0,-1.6344 -4.90346,0 -4.90347,0 0,1.6344 0,1.6345 3.26898,0 3.26898,0 0,1.6345 0,1.6345 -1.63449,0 -1.63449,0 0,1.6345 0,1.6345 1.63449,0 1.63449,0 0,1.6345 0,1.6345 -4.90347,0 -4.90347,0 0,-8.1725 z m 22.88284,3.269 0,-1.6345 -1.63448,0 -1.63449,0 0,1.6345 0,1.6345 1.63449,0 1.63448,0 0,-1.6345 z m 26.15182,0 0,-1.6345 -1.63449,0 -1.63448,0 0,-1.6345 0,-1.6345 1.63448,0 1.63449,0 0,-1.6345 0,-1.6344 -4.90346,0 -4.90347,0 0,1.6344 0,1.6345 1.63449,0 1.63449,0 0,1.6345 0,1.6345 1.63449,0 1.63449,0 0,1.6345 0,1.6345 1.63448,0 1.63449,0 0,-1.6345 z m 6.53796,0 0,-1.6345 -1.63449,0 -1.63449,0 0,1.6345 0,1.6345 1.63449,0 1.63449,0 0,-1.6345 z m 6.53795,0 0,-1.6345 -1.63449,0 -1.63448,0 0,1.6345 0,1.6345 1.63448,0 1.63449,0 0,-1.6345 z m -6.53795,-6.538 0,-1.6344 -1.63449,0 -1.63449,0 0,1.6344 0,1.6345 1.63449,0 1.63449,0 0,-1.6345 z m 6.53795,0 0,-1.6344 -1.63449,0 -1.63448,0 0,1.6344 0,1.6345 1.63448,0 1.63449,0 0,-1.6345 z m -9.80693,-9.80692 0,-4.9034 -4.90347,0 -4.90346,0 0,4.9034 0,4.9035 4.90346,0 4.90347,0 0,-4.9035 z m -6.53795,0 0,-1.6345 1.63448,0 1.63449,0 0,1.6345 0,1.6345 -1.63449,0 -1.63448,0 0,-1.6345 z m 16.34488,3.269 0,-1.6345 -1.63449,0 -1.63448,0 0,1.6345 0,1.6345 1.63448,0 1.63449,0 0,-1.6345 z m -22.88284,-11.4414 0,-6.538 -1.63449,0 -1.63449,0 0,-4.9034 0,-4.9035 3.26898,0 3.26898,0 0,-1.6345 0,-1.6345 1.63449,0 1.63449,0 0,3.269 0,3.269 -3.26898,0 -3.26898,0 0,1.6345 0,1.6344 4.90347,0 4.90346,0 0,1.6345 0,1.6345 -3.26897,0 -3.26898,0 0,3.269 0,3.269 3.26898,0 3.26897,0 0,-3.269 0,-3.269 1.63449,0 1.63449,0 0,1.6345 0,1.6345 1.63449,0 1.63449,0 0,3.269 0,3.269 1.63449,0 1.63449,0 0,-1.6345 0,-1.6345 1.63448,0 1.63449,0 0,-1.6345 0,-1.6345 -3.26897,0 -3.26898,0 0,-1.6345 0,-1.6345 -1.63449,0 -1.63449,0 0,-1.6345 0,-1.6345 3.26898,0 3.26898,0 0,-1.6344 0,-1.6345 1.63448,0 1.63449,0 0,-1.6345 0,-1.6345 -1.63449,0 -1.63448,0 0,-3.269 0,-3.269 -1.63449,0 -1.63449,0 0,-1.6345 0,-1.63445 -3.26898,0 -3.26898,0 0,-1.63449 0,-1.63449 -1.63449,0 -1.63448,0 0,1.63449 0,1.63449 -1.63449,0 -1.63449,0 0,-1.63449 0,-1.63449 -1.63449,0 -1.63449,0 0,-1.63449 0,-1.63448 -1.63449,0 -1.63449,0 0,1.63448 0,1.63449 -3.26897,0 -3.26898,0 0,1.63449 0,1.63449 -3.26898,0 -3.26898,0 0,-1.63449 0,-1.63449 -1.63448,0 -1.63449,0 0,1.63449 0,1.63449 -1.63449,0 -1.63449,0 0,1.63445 0,1.6345 -1.63449,0 -1.63449,0 0,-3.26895 0,-3.26898 1.63449,0 1.63449,0 0,-1.63449 0,-1.63448 -1.63449,0 -1.63449,0 0,-1.63449 0,-1.63449 -1.63449,0 -1.63448,0 0,-1.63449 0,-1.63449 -1.63449,0 -1.63449,0 0,1.63449 0,1.63449 -3.26898,0 -3.26898,0 0,1.63449 0,1.63449 1.63449,0 1.63449,0 0,3.26897 0,3.26898 -3.26898,0 -3.26897,0 0,-1.63449 0,-1.63449 -1.63449,0 -1.63449,0 0,-1.63449 0,-1.63448 1.63449,0 1.63449,0 0,-1.63449 0,-1.63449 -1.63449,0 -1.63449,0 0,1.63449 0,1.63449 -1.63449,0 -1.63449,0 0,-1.63449 0,-1.63449 -1.63449,0 -1.63448,0 0,4.90346 0,4.90347 -3.26899,0 -3.26897,0 0,1.63445 0,1.6345 -1.63449,0 -1.63449,0 0,1.6345 0,1.6345 1.63449,0 1.63449,0 0,3.269 0,3.269 1.63449,0 1.63448,0 0,-1.6345 0,-1.6345 3.26899,0 3.26897,0 0,1.6345 0,1.6345 3.26898,0 3.26898,0 0,-1.6345 0,-1.6345 1.63448,0 1.63449,0 0,1.6345 0,1.6345 3.26898,0 3.26898,0 0,-1.6345 0,-1.6345 -3.26898,0 -3.26898,0 0,-1.6345 0,-1.6345 8.17245,0 8.17244,0 0,1.6345 0,1.6345 -1.63449,0 -1.63449,0 0,3.269 0,3.2689 4.90347,0 4.90346,0 0,1.6345 0,1.6345 1.63449,0 1.63449,0 0,-1.6345 0,-1.6345 1.63449,0 1.63449,0 0,3.269 0,3.269 -4.90347,0 -4.90346,0 0,1.6345 0,1.6345 3.26897,0 3.26898,0 0,1.6345 0,1.6345 1.63449,0 1.63449,0 0,-1.6345 0,-1.6345 1.63449,0 1.63449,0 0,1.6345 0,1.6345 1.63448,0 1.63449,0 0,1.6344 0,1.6345 1.63449,0 1.63449,0 0,-6.5379 z m -6.53795,-1.6345 0,-1.6345 1.63448,0 1.63449,0 0,1.6345 0,1.6345 -1.63449,0 -1.63448,0 0,-1.6345 z m -3.26898,-9.8069 0,-1.6345 -1.63449,0 -1.63449,0 0,-1.6345 0,-1.6345 -1.63449,0 -1.63449,0 0,1.6345 0,1.6345 -1.63448,0 -1.63449,0 0,-1.6345 0,-1.6345 1.63449,0 1.63448,0 0,-1.6345 0,-1.6345 1.63449,0 1.63449,0 0,-1.6345 0,-1.6345 1.63449,0 1.63449,0 0,-1.6345 0,-1.63445 1.63449,0 1.63449,0 0,1.63445 0,1.6345 4.90346,0 4.90347,0 0,1.6345 0,1.6345 -3.26898,0 -3.26898,0 0,1.6345 0,1.6345 -1.63449,0 -1.63448,0 0,-1.6345 0,-1.6345 -1.63449,0 -1.63449,0 0,3.269 0,3.269 1.63449,0 1.63449,0 0,1.6345 0,1.6344 -1.63449,0 -1.63449,0 0,-1.6344 z m 19.61386,-3.269 0,-1.6345 1.63449,0 1.63449,0 0,1.6345 0,1.6345 -1.63449,0 -1.63449,0 0,-1.6345 z m -58.84159,-3.269 0,-1.6345 -1.63449,0 -1.63448,0 0,-1.6345 0,-1.6345 1.63448,0 1.63449,0 0,-1.6345 0,-1.63445 3.26898,0 3.26898,0 0,1.63445 0,1.6345 -3.26898,0 -3.26898,0 0,1.6345 0,1.6345 3.26898,0 3.26898,0 0,1.6345 0,1.6345 -3.26898,0 -3.26898,0 0,-1.6345 z m -9.80693,-3.269 0,-1.6345 1.63449,0 1.63448,0 0,1.6345 0,1.6345 -1.63448,0 -1.63449,0 0,-1.6345 z m 65.37955,0 0,-1.6345 4.90346,0 4.90347,0 0,1.6345 0,1.6345 -4.90347,0 -4.90346,0 0,-1.6345 z m -42.49671,-3.269 0,-1.63445 3.26898,0 3.26898,0 0,1.63445 0,1.6345 -3.26898,0 -3.26898,0 0,-1.6345 z m 16.34489,0 0,-1.63445 1.63449,0 1.63448,0 0,1.63445 0,1.6345 -1.63448,0 -1.63449,0 0,-1.6345 z m 16.34488,-3.26894 0,-1.63449 1.63449,0 1.63449,0 0,1.63449 0,1.63449 -1.63449,0 -1.63449,0 0,-1.63449 z m -29.42079,-4.90346 0,-3.26898 1.63449,0 1.63449,0 0,3.26898 0,3.26897 -1.63449,0 -1.63449,0 0,-3.26897 z m 39.22773,-1.63449 0,-1.63449 -1.63449,0 -1.63449,0 0,1.63449 0,1.63449 1.63449,0 1.63449,0 0,-1.63449 z m -39.22773,-9.80694 0,-1.63448 -1.63449,0 -1.63449,0 0,1.63448 0,1.63449 1.63449,0 1.63449,0 0,-1.63449 z m 6.53795,0 0,-1.63448 -1.63449,0 -1.63448,0 0,1.63448 0,1.63449 1.63448,0 1.63449,0 0,-1.63449 z m 16.34489,-3.26897 0,-1.63449 -1.63449,0 -1.63449,0 0,1.63449 0,1.63449 1.63449,0 1.63449,0 0,-1.63449 z m -29.4208,53.9381 0,-3.2689 1.63449,0 1.63449,0 0,3.2689 0,3.269 -1.63449,0 -1.63449,0 0,-3.269 z m -6.53795,-4.9034 0,-1.6345 1.63449,0 1.63449,0 0,-1.6345 0,-1.6345 -1.63449,0 -1.63449,0 0,-1.6345 0,-1.6345 1.63449,0 1.63449,0 0,1.6345 0,1.6345 3.26897,0 3.26898,0 0,1.6345 0,1.6345 -3.26898,0 -3.26897,0 0,1.6345 0,1.6345 -1.63449,0 -1.63449,0 0,-1.6345 z m 71.9175,-9.807 0,-1.6345 1.63449,0 1.63449,0 0,1.6345 0,1.6345 -1.63449,0 -1.63449,0 0,-1.6345 z m 0,-13.0759 0,-1.6345 1.63449,0 1.63449,0 0,1.6345 0,1.6345 -1.63449,0 -1.63449,0 0,-1.6345 z m 0,-13.07589 0,-1.63449 -1.63449,0 -1.63449,0 0,-1.63449 0,-1.63449 1.63449,0 1.63449,0 0,1.63449 0,1.63449 1.63449,0 1.63449,0 0,1.63449 0,1.63449 -1.63449,0 -1.63449,0 0,-1.63449 z m -91.53136,-19.61387 0,-11.44142 11.44141,0 11.44143,0 0,11.44142 0,11.44142 -11.44143,0 -11.44141,0 0,-11.44142 z m 19.61386,0 0,-8.17244 -8.17245,0 -8.17244,0 0,8.17244 0,8.17245 8.17244,0 8.17245,0 0,-8.17245 z m -13.07591,0 0,-4.90346 4.90346,0 4.90347,0 0,4.90346 0,4.90347 -4.90347,0 -4.90346,0 0,-4.90347 z m 65.37955,0 0,-11.44142 11.44142,0 11.44142,0 0,11.44142 0,11.44142 -11.44142,0 -11.44142,0 0,-11.44142 z m 19.61386,0 0,-8.17244 -8.17244,0 -8.17245,0 0,8.17244 0,8.17245 8.17245,0 8.17244,0 0,-8.17245 z m -13.07591,0 0,-4.90346 4.90347,0 4.90346,0 0,4.90346 0,4.90347 -4.90346,0 -4.90347,0 0,-4.90347 z m -52.30364,-6.53795 0,-1.63449 1.63449,0 1.63449,0 0,1.63449 0,1.63449 -1.63449,0 -1.63449,0 0,-1.63449 z m 6.53796,-1.63449 0,-3.26898 1.63449,0 1.63449,0 0,3.26898 0,3.26898 -1.63449,0 -1.63449,0 0,-3.26898 z"
       style="fill:#000000" />
    <text
       xml:space="preserve"
       style="font-size:26.36643791px;font-style:normal;font-variant:normal;font-weight:bold;font-stretch:normal;text-align:center;line-height:125%;letter-spacing:0px;word-spacing:0px;writing-mode:lr-tb;text-anchor:middle;fill:#000000;fill-opacity:1;stroke:none;font-family:Aharoni;-inkscape-font-specification:Aharoni Bold"
       x="382.44601"
       y="816.67615"
       id="text3031"
       sodipodi:linespacing="125%"><tspan
         sodipodi:role="line"
         id="tspan3033"
         x="382.44601"
         y="816.67615">ASSEDIO E DISCRIMINACAO</tspan></text>
    <path
       transform="matrix(0.22125438,0,0,0.10699727,252.33827,777.46229)"
       d="m 56.435727,192.00528 -15.959112,-27.64199 31.918222,0 z"
       inkscape:randomized="0"
       inkscape:rounded="0"
       inkscape:flatsided="true"
       sodipodi:arg2="2.6179939"
       sodipodi:arg1="1.5707963"
       sodipodi:r2="0.87329668"
       sodipodi:r1="18.427994"
       sodipodi:cy="173.57729"
       sodipodi:cx="56.435726"
       sodipodi:sides="3"
       id="path4094"
       style="color:#000000;fill:#000000;fill-opacity:1;fill-rule:nonzero;stroke:none;stroke-width:39.29999924;marker:none;visibility:visible;display:inline;overflow:visible;enable-background:accumulate"
       sodipodi:type="star" />
    <path
       transform="matrix(0.00437091,0.2212112,-0.10697639,0.00211374,528.01738,806.54934)"
       d="m 56.435727,192.00528 -15.959112,-27.64199 31.918222,0 z"
       inkscape:randomized="0"
       inkscape:rounded="0"
       inkscape:flatsided="true"
       sodipodi:arg2="2.6179939"
       sodipodi:arg1="1.5707963"
       sodipodi:r2="0.87329668"
       sodipodi:r1="18.427994"
       sodipodi:cy="173.57729"
       sodipodi:cx="56.435726"
       sodipodi:sides="3"
       id="path4100"
       style="color:#000000;fill:#000000;fill-opacity:1;fill-rule:nonzero;stroke:none;stroke-width:39.29999924;marker:none;visibility:visible;display:inline;overflow:visible;enable-background:accumulate"
       sodipodi:type="star"
       inkscape:transform-center-x="1.5133981"
       inkscape:transform-center-y="-3.530334" />
    <g
       transform="translate(9.213338,8.887284)"
       id="g4112">
      <text
         xml:space="preserve"
         style="font-size:26.36643791px;font-style:normal;font-variant:normal;font-weight:bold;font-stretch:normal;text-align:center;line-height:125%;letter-spacing:0px;word-spacing:0px;writing-mode:lr-tb;text-anchor:middle;fill:#000000;fill-opacity:1;stroke:none;font-family:Aharoni;-inkscape-font-specification:Aharoni Bold"
         x="372.36365"
         y="781.4588"
         id="text3023"
         sodipodi:linespacing="125%"><tspan
           sodipodi:role="line"
           id="tspan3025"
           x="372.36365"
           y="781.4588">CAMPANHA DE TOLERANCIA ZERO PARA</tspan></text>
      <path
         transform="matrix(0.22125438,0,0,-0.10699727,389.04411,778.70547)"
         d="m 56.435727,192.00528 -15.959112,-27.64199 31.918222,0 z"
         inkscape:randomized="0"
         inkscape:rounded="0"
         inkscape:flatsided="true"
         sodipodi:arg2="2.6179939"
         sodipodi:arg1="1.5707963"
         sodipodi:r2="0.87329668"
         sodipodi:r1="18.427994"
         sodipodi:cy="173.57729"
         sodipodi:cx="56.435726"
         sodipodi:sides="3"
         id="path4104"
         style="color:#000000;fill:#000000;fill-opacity:1;fill-rule:nonzero;stroke:none;stroke-width:39.29999924;marker:none;visibility:visible;display:inline;overflow:visible;enable-background:accumulate"
         sodipodi:type="star" />
    </g>
    <text
       xml:space="preserve"
       style="font-size:68.67036438px;font-style:normal;font-variant:normal;font-weight:bold;font-stretch:normal;text-align:center;line-height:125%;letter-spacing:0px;word-spacing:0px;writing-mode:lr-tb;text-anchor:middle;fill:#000000;fill-opacity:1;stroke:none;font-family:Aharoni;-inkscape-font-specification:Aharoni Bold"
       x="530.75629"
       y="756.22528"
       id="text3184"
       sodipodi:linespacing="125%"><tspan
         sodipodi:role="line"
         id="tspan3186"
         x="540.27893"
         y="756.22528">' </tspan></text>
    <text
       sodipodi:linespacing="125%"
       id="text3194"
       y="689.98462"
       x="573.24597"
       style="font-size:48.37119675px;font-style:normal;font-variant:normal;font-weight:900;font-stretch:normal;text-align:center;line-height:125%;letter-spacing:0px;word-spacing:0px;writing-mode:lr-tb;text-anchor:middle;fill:#000000;fill-opacity:1;stroke:none;font-family:Arial Black;-inkscape-font-specification:'Arial Black, Heavy'"
       xml:space="preserve"><tspan
         sodipodi:role="line"
         id="tspan3198"
         x="573.24597"
         y="689.98462">~</tspan></text>
  </g>
</svg>
